<svg width="49" height="48" viewBox="0 0 49 48" fill="none" xmlns="http://www.w3.org/2000/svg">
<path d="M23.5784 4.26199C13.8127 10.9261 10.2736 13.3558 10.133 13.5121C9.92202 13.7386 9.89077 14.1996 10.0705 14.4496C10.2267 14.6761 10.6564 14.809 10.9064 14.7152C11.0158 14.6761 13.9689 12.6839 17.4612 10.2855C20.9612 7.89483 23.9143 5.89481 24.0393 5.84794C24.1878 5.79325 24.3128 5.79325 24.469 5.84794C24.5862 5.89481 27.5472 7.89483 31.0472 10.2933C34.5473 12.6839 37.516 14.6761 37.641 14.7152C37.9145 14.7933 38.3442 14.6371 38.4614 14.4105C38.6098 14.1371 38.5629 13.7152 38.3754 13.5121C38.2739 13.4027 35.1254 11.223 31.3754 8.66047C23.7347 3.43385 24.3128 3.76198 23.5784 4.26199Z" fill="#E63946"/>
<path d="M18.8516 10.9486L13.5078 14.6049L13.4844 17.6362L13.4688 20.6596L13.6953 20.9174C14.25 21.5581 14.3203 22.4643 13.875 23.4097C13.6797 23.8315 13.6406 23.9643 13.7188 24.019C13.9141 24.144 14.6875 24.4097 15.3047 24.5659C16.0938 24.769 16.75 24.7612 17.6875 24.5503C18.0938 24.4565 18.7813 24.3393 19.211 24.2768C19.6641 24.2143 20.0157 24.1206 20.0548 24.0659C20.086 24.0112 20.2501 23.73 20.4219 23.4409L20.7344 22.9175V20.4487C20.7344 18.183 20.7501 17.9565 20.8829 17.6908C21.0626 17.3315 21.2423 17.1674 21.6173 17.0112C22.0391 16.8393 26.4611 16.8393 26.8829 17.0112C27.2579 17.1674 27.4376 17.3315 27.6173 17.6908C27.7501 17.9565 27.7658 18.1752 27.7658 20.0815V22.1753L29.5002 23.4565C31.5783 24.9956 31.8205 25.1284 32.5236 25.1284C32.9455 25.1206 33.2346 25.0503 34.133 24.7144C34.7268 24.4956 35.2346 24.3003 35.2424 24.2847C35.258 24.269 35.0549 23.8472 34.7893 23.3393C34.3596 22.5268 34.3049 22.3628 34.3049 21.9799C34.3049 21.4643 34.4768 21.0112 34.8049 20.6752L35.0315 20.4409L35.0158 17.519L34.9924 14.6049L29.6486 10.9408C26.7111 8.93295 24.2814 7.28449 24.2501 7.28449C24.2189 7.28449 21.7891 8.93295 18.8516 10.9486ZM25.1642 9.92514C27.0158 10.5658 27.6564 12.9486 26.3673 14.4096C25.7501 15.1127 24.6954 15.5033 23.8439 15.3471C22.8751 15.1674 22.1485 14.6283 21.7345 13.7846C21.5001 13.308 21.4766 13.1986 21.4766 12.558C21.4845 11.9564 21.5157 11.7923 21.6954 11.4252C22.336 10.1048 23.8204 9.4642 25.1642 9.92514Z" fill="#E63946"/>
<path d="M23.5778 11.269C22.6247 11.7456 22.5075 13.0893 23.3669 13.7456C23.6247 13.9409 23.7185 13.9644 24.2497 13.9644C24.781 13.9644 24.8747 13.9409 25.1325 13.7456C26.2575 12.894 25.6482 11.1128 24.2341 11.1128C24.0466 11.1128 23.7575 11.1831 23.5778 11.269Z" fill="#E63946"/>
<path d="M4.25 27.9174V37.5972H4.66407C4.92969 37.5972 5.12501 37.5503 5.2422 37.4565C5.47657 37.269 12.8438 22.5033 12.8438 22.2142C12.8438 21.7455 12.6798 21.6595 8.85942 20.1048C6.8594 19.2923 5.00782 18.5423 4.74219 18.4329L4.25 18.2298V27.9174Z" fill="#E63946"/>
<path d="M22.0625 19.8628C22.0625 20.7612 22.0781 21.5034 22.1016 21.5034C22.1172 21.5034 22.3516 21.394 22.6172 21.2612C23.6328 20.7456 24.75 20.6518 25.7813 20.9956C26.1016 21.105 26.3829 21.1909 26.3985 21.1909C26.4219 21.1909 26.4375 20.519 26.4375 19.7065V18.2221H24.25H22.0625V19.8628Z" fill="#E63946"/>
<path d="M39.9922 19.8236C37.6094 20.7376 35.8125 21.472 35.7578 21.5501C35.7031 21.6283 35.6562 21.7923 35.6562 21.9095C35.6562 22.1595 42.8907 35.6284 43.1876 35.9409C43.3126 36.0737 43.4845 36.1362 43.8048 36.1675L44.2501 36.2144V27.2143C44.2501 22.2689 44.2266 18.222 44.1954 18.222C44.1563 18.2298 42.2735 18.9486 39.9922 19.8236Z" fill="#E63946"/>
<path d="M23.6492 22.2377C23.1492 22.4017 22.821 22.6361 22.2429 23.2533C21.5398 24.0111 21.3445 24.3549 20.2429 26.7612C19.2116 29.0112 19.1179 29.3627 19.3913 29.8549C19.6726 30.3706 20.4304 30.5659 20.9382 30.2612C21.071 30.1752 21.8367 29.3862 22.6414 28.4955L24.1023 26.8862L23.8601 26.6127C23.5711 26.2846 23.5554 25.9721 23.8132 25.6752C23.9461 25.5111 24.0711 25.4565 24.2742 25.4565C24.5086 25.4565 24.6726 25.5658 25.4695 26.269C25.9773 26.7221 28.3367 28.8159 30.7196 30.9331L35.0555 34.7769L35.3368 34.6597C35.493 34.5972 36.5712 34.1518 37.7274 33.6753C38.8915 33.1909 39.8525 32.7925 39.8603 32.7846C39.9228 32.7378 35.9696 25.5268 35.8759 25.5033C35.8134 25.4955 35.2587 25.6752 34.6259 25.9096C34.0008 26.1518 33.2665 26.3783 33.0086 26.4174C32.3915 26.519 31.7039 26.4096 31.0868 26.1205C30.8289 25.9955 29.5555 25.1205 28.2508 24.1752C26.7039 23.0424 25.7351 22.3939 25.4539 22.2845C24.9617 22.1049 24.157 22.0814 23.6492 22.2377Z" fill="#E63946"/>
<path d="M12.0782 26.9882C10.6953 29.6757 7.92188 35.2383 7.92188 35.332C7.92188 35.4024 8.93751 35.957 9.07814 35.957C9.10939 35.957 9.23439 35.7461 9.35158 35.4883C9.74221 34.6445 10.3906 34.168 11.25 34.0977C11.8516 34.0508 12.3907 34.2227 12.8282 34.5898C13 34.7383 13.1641 34.8633 13.1954 34.8633C13.2188 34.8633 13.3751 34.7617 13.5313 34.6289C14.5469 33.8164 16.2345 34.0898 16.961 35.1836C17.0782 35.3555 17.2267 35.6758 17.3048 35.8945L17.4376 36.3008L17.9845 36.3086C18.3985 36.3164 18.6251 36.3711 18.961 36.5352C19.5236 36.8086 20.0626 37.4024 20.2345 37.9336L20.3595 38.3399L20.8048 38.3477C21.8986 38.3711 22.7892 39.3008 22.7892 40.4102C22.7892 40.7462 22.7189 41.004 22.4611 41.5743C22.2814 41.9805 22.1642 42.3399 22.1955 42.3712C22.4142 42.5743 24.0392 43.8556 24.1642 43.9181C24.3908 44.0431 24.8439 44.0196 25.1174 43.879C25.258 43.8087 25.4064 43.6368 25.4767 43.4806C25.672 43.0118 25.5627 42.7384 24.922 42.0665C24.6095 41.7384 24.3361 41.4024 24.3048 41.3321C24.1642 40.9337 24.672 40.418 25.0939 40.5274C25.2111 40.5587 25.6955 40.9649 26.1721 41.4337C26.8596 42.1134 27.0939 42.3009 27.3127 42.3321C27.883 42.4259 28.383 41.9259 28.2736 41.3555C28.2268 41.1212 27.9455 40.8008 26.6096 39.4571C25.2267 38.0664 25.008 37.8008 25.008 37.5977C25.008 37.1602 25.5392 36.793 25.9142 36.9805C26.008 37.0274 26.8283 37.8008 27.7268 38.6914C29.1174 40.0743 29.4143 40.3243 29.6643 40.3712C30.6799 40.5587 31.4534 39.668 31.1174 38.6993C31.0549 38.5196 30.5002 37.9805 29.1565 36.8008C28.1252 35.9024 27.2502 35.082 27.2033 34.9805C27.0158 34.5742 27.5236 34.0039 27.9689 34.1133C28.0705 34.1445 29.1565 35.0352 30.3752 36.1055C31.594 37.1758 32.7034 38.1133 32.844 38.1836C33.0315 38.2774 33.2268 38.3086 33.5237 38.2852C33.9924 38.2461 34.2737 38.0821 34.5393 37.6758C34.7893 37.3164 34.7893 36.6289 34.5393 36.2617C34.3674 36.0117 25.2189 27.832 25.1095 27.832C25.0783 27.832 24.3517 28.621 23.4845 29.582C22.1564 31.0586 21.8439 31.3633 21.4845 31.5429C19.9142 32.3086 18.1095 31.332 17.8829 29.582C17.8126 29.0507 17.9142 28.7148 18.6407 27.1132C18.9923 26.3476 19.2501 25.6991 19.2267 25.6757C19.1954 25.6444 18.6876 25.7226 18.1017 25.8398C16.2266 26.2304 15.2032 26.0976 13.1094 25.2069C13.0547 25.1835 12.6329 25.9101 12.0782 26.9882Z" fill="#E63946"/>
<path d="M10.9533 35.5436C10.7423 35.6765 10.5314 36.0515 9.96891 37.3249C9.71109 37.9187 9.70328 37.9577 9.80484 38.2546C9.94547 38.6609 10.258 38.8874 10.6564 38.8718C11.1642 38.8484 11.297 38.6921 11.8283 37.5515C12.3517 36.4187 12.383 36.1843 12.1017 35.7468C11.8752 35.403 11.3361 35.3093 10.9533 35.5436Z" fill="#E63946"/>
<path d="M14.4455 35.6364C14.3205 35.7145 14.1564 35.8473 14.0861 35.9254C13.9064 36.1364 12.7658 38.7301 12.7111 39.0348C12.6486 39.4098 12.9221 39.9723 13.2424 40.1364C13.633 40.3473 14.2736 40.2614 14.5627 39.9723C14.6877 39.8473 15.0705 39.1364 15.4221 38.3786C16.1408 36.8395 16.2112 36.5114 15.9065 36.0192C15.594 35.5192 14.9143 35.3395 14.4455 35.6364Z" fill="#E63946"/>
<path d="M17.1873 37.9252C16.8514 38.2455 15.9608 40.1362 15.9139 40.644C15.8436 41.2925 16.4373 41.8628 17.117 41.7925C17.6795 41.7378 17.8514 41.5425 18.4217 40.3003C19.0467 38.9409 19.078 38.8002 18.8983 38.3315C18.7264 37.8705 18.4139 37.6752 17.8592 37.6752C17.5076 37.6752 17.4139 37.7065 17.1873 37.9252Z" fill="#E63946"/>
<path d="M20.2429 39.7924C20.1101 39.8706 19.5164 41.0346 19.1726 41.9097C18.907 42.5659 19.196 43.0659 19.8367 43.0659C20.0711 43.0659 20.2039 43.019 20.3289 42.894C20.5945 42.605 21.4383 40.6909 21.4383 40.3706C21.4383 39.9643 21.157 39.7065 20.7195 39.7065C20.532 39.7065 20.3211 39.7456 20.2429 39.7924Z" fill="#E63946"/>
</svg>
