<svg width="49" height="48" viewBox="0 0 49 48" fill="none" xmlns="http://www.w3.org/2000/svg">
<path d="M24.1582 4.33913C23.9832 4.51959 23.7082 4.93793 23.5332 5.28244C23.2832 5.7746 23.2166 6.02068 23.1832 6.50464C23.1332 7.31671 23.2666 7.81707 23.7582 8.62094C24.1166 9.20333 24.1666 9.34277 24.1666 9.7283V10.1794L23.8416 9.92516C22.8999 9.19512 21.0749 8.76859 20.5749 9.17052C20.3916 9.31817 20.3749 9.38379 20.3999 9.92516C20.4332 10.6716 20.7416 11.6149 21.1582 12.2137C21.5749 12.8207 22.3082 13.3047 23.2332 13.5754C23.6332 13.6902 24.0082 13.805 24.0666 13.8214C24.1332 13.8378 24.1666 14.0593 24.1666 14.5597V15.2651L23.9082 15.0436C22.9749 14.2808 20.9582 13.8132 20.5332 14.2726C20.2249 14.6089 20.4166 15.9049 20.9166 16.8975C21.3916 17.808 22.2916 18.4478 23.5416 18.7513L24.0832 18.8825V19.9242V20.966L23.2166 21.0152C21.5499 21.1218 19.4999 21.6304 18.1582 22.2784L17.5249 22.5901L16.6166 22.3686C15.5916 22.1144 14.2082 21.8929 13.6332 21.8929H13.2499V20.8019V19.711L13.8166 19.5715C14.4832 19.3993 15.0832 19.1368 15.5416 18.8005C16.2582 18.2837 16.8499 17.0861 16.9582 15.9459C17.0082 15.4292 16.9999 15.3471 16.8332 15.1421C16.6749 14.9452 16.5999 14.9206 16.1499 14.9206C15.2832 14.9206 14.4249 15.1995 13.6082 15.7573L13.2499 15.9952V15.3061V14.6171L13.7582 14.5105C14.3666 14.3792 15.2582 13.9691 15.6582 13.641C16.3249 13.0914 16.8499 11.9676 16.9582 10.8521C17.0082 10.3435 16.9999 10.2615 16.8249 10.0482C16.6416 9.81853 16.6332 9.81033 15.9666 9.85954C15.1499 9.91696 14.3916 10.163 13.7666 10.5814L13.2916 10.8931L13.2666 10.4419C13.2499 10.0974 13.2832 9.94157 13.4166 9.75291C13.7166 9.34277 14.0916 8.47329 14.1582 8.02214C14.3082 7.10344 13.9249 5.95506 13.2249 5.21682C12.6249 4.58521 12.2332 4.70825 11.5666 5.73359C11.2416 6.23395 10.9999 7.04602 10.9999 7.62841C10.9999 8.18619 11.1916 8.74398 11.6666 9.53964C11.9416 10.0072 11.9999 10.1712 11.9999 10.5486V10.9997L11.7416 10.7782C10.8332 10.0318 8.85824 9.56425 8.41658 9.99899C8.07491 10.3353 8.25824 11.6969 8.76658 12.6403C9.26658 13.559 9.99991 14.1003 11.2499 14.4531L11.9582 14.6581L11.9832 15.3718L12.0082 16.0854L11.6916 15.8311C10.9832 15.2815 9.93324 14.9206 9.03324 14.9206C8.36658 14.9206 8.24991 15.0354 8.24991 15.7327C8.24991 17.6603 9.44158 19.104 11.3999 19.5715L12.0082 19.711L11.9832 20.8511L11.9582 21.9913L11.2499 22.1964C10.5499 22.3933 9.53324 22.828 9.20824 23.0741C9.05824 23.1889 10.6166 23.1971 24.7082 23.2053C34.2499 23.2053 40.3332 23.1725 40.2916 23.1315C40.0332 22.8854 38.4999 22.262 37.7666 22.1062L37.4999 22.0405V20.8758V19.711L38.0999 19.5715C40.0666 19.104 41.2499 17.6603 41.2499 15.7245C41.2499 15.0354 41.1332 14.9206 40.4499 14.9206C39.5666 14.9206 38.5082 15.2815 37.8082 15.8311L37.4916 16.0854L37.5166 15.3718L37.5416 14.6581L38.2499 14.4531C39.4999 14.1003 40.2332 13.559 40.7332 12.6403C41.2416 11.6969 41.4249 10.3353 41.0832 9.99899C40.6416 9.56425 38.6666 10.0318 37.7582 10.7782L37.4999 10.9997V10.5322C37.4999 10.1959 37.5499 9.99899 37.6666 9.83494C37.7582 9.70369 37.9749 9.31817 38.1332 8.97365C38.5332 8.15338 38.5999 7.47256 38.3499 6.66049C38.0499 5.69258 37.3582 4.83129 36.8916 4.83129C36.3499 4.83129 35.5166 6.0617 35.3416 7.11984C35.2082 7.92371 35.3999 8.64555 36.0082 9.61346C36.2166 9.94977 36.2499 10.081 36.2332 10.4501L36.2082 10.8931L35.7332 10.5814C35.1082 10.163 34.3499 9.91696 33.5332 9.85954C32.8666 9.81033 32.8582 9.81853 32.6749 10.0482C32.4999 10.2615 32.4916 10.3435 32.5416 10.8521C32.6582 12.0086 33.1916 13.1242 33.8916 13.6738C34.3499 14.0265 35.1332 14.3792 35.7416 14.5105L36.2499 14.6171V15.3143V16.0034L35.9832 15.8065C35.2749 15.2733 34.2166 14.9206 33.3499 14.9206C32.8999 14.9206 32.8249 14.9452 32.6666 15.1421C32.4999 15.3471 32.4916 15.4292 32.5416 15.9459C32.6499 17.0861 33.2416 18.2837 33.9582 18.8005C34.4166 19.1368 35.0166 19.3993 35.6916 19.5715L36.2499 19.711V20.8019V21.8929H35.6916C34.9749 21.8929 33.7666 22.0734 32.5416 22.3604L31.5916 22.5737L30.6916 22.1636C29.3082 21.5238 27.8249 21.13 26.3999 21.0316C25.2249 20.9496 25.3332 21.0562 25.3332 19.8996V18.8989L25.9166 18.7595C26.7332 18.5708 27.5082 18.1771 27.9582 17.7341C28.6166 17.0943 29.0582 16.0198 29.0999 14.9944C29.1332 14.248 28.9999 14.1003 28.3082 14.1003C27.4249 14.1003 26.2416 14.5105 25.5916 15.0518L25.3249 15.2651L25.3499 14.5515L25.3749 13.8378L26.0666 13.641C26.8499 13.4195 27.3249 13.198 27.7666 12.8617C28.4666 12.3121 29.0582 11.0243 29.0999 9.92516C29.1249 9.37558 29.1082 9.31817 28.9166 9.16231C28.7332 9.01467 28.6249 8.99826 28.0832 9.03927C27.2832 9.09669 26.5416 9.35098 25.8666 9.79392L25.3332 10.1466V9.71189C25.3332 9.34277 25.3832 9.18692 25.6999 8.69476C26.2082 7.88269 26.3666 7.34132 26.3166 6.55386C26.2749 5.79101 25.8832 4.89692 25.3582 4.35554C24.9082 3.88798 24.5999 3.87978 24.1582 4.33913Z" fill="#28A745"/>
<path d="M4.85 24.3712C4.78333 24.4368 4.75 24.8306 4.75 25.5934C4.75 26.6187 4.76667 26.7336 4.94167 26.9797C5.25833 27.4472 5.48333 27.5539 6.3 27.6359C7.58333 27.7507 8.46667 28.1608 9.25 29.0057C10.0167 29.826 10.4167 30.8431 10.4167 31.9341C10.4167 33.0579 10.0667 33.9437 9.25833 34.8706C8.8 35.3956 8.68333 35.7811 8.825 36.2979C8.9 36.5522 9.23333 36.9377 10.5583 38.2255C11.4667 39.1114 12.2917 39.8825 12.3917 39.9317C12.6167 40.0465 13.1667 40.0465 13.4583 39.9399C13.5833 39.8907 13.875 39.6938 14.1083 39.4888C15.8917 37.9549 18.4083 38.0369 20.1083 39.702C20.9083 40.4895 21.4083 41.6625 21.4167 42.778C21.4167 43.1554 21.65 43.5573 22.025 43.828C22.25 43.992 22.3583 44.0002 24.75 44.0002C27.1417 44.0002 27.25 43.992 27.475 43.828C27.9083 43.5163 28.05 43.2046 28.1167 42.4909C28.3 40.2516 29.9667 38.5947 32.2083 38.406C33.2917 38.3158 34.525 38.7341 35.3833 39.4806C35.625 39.6856 35.9167 39.8907 36.0417 39.9399C36.3333 40.0465 36.8833 40.0465 37.1083 39.9317C37.2083 39.8825 38.0333 39.1114 38.9417 38.2255C40.2667 36.9377 40.6 36.5522 40.675 36.2979C40.8167 35.7894 40.7083 35.4366 40.2 34.8214C39.3833 33.8125 39.0833 33.0497 39.0833 31.9341C39.0833 30.8431 39.4833 29.826 40.25 29.0057C41.0333 28.1608 41.9167 27.7507 43.2 27.6359C44.0167 27.5539 44.2417 27.4472 44.5667 26.9797C44.7333 26.7336 44.75 26.6187 44.75 25.5934C44.75 24.8306 44.7167 24.4368 44.65 24.3712C44.575 24.2974 43.3083 24.2728 39.45 24.2728H34.3583L34.2667 25.1505C34.0417 27.2996 33.2 29.1452 31.7667 30.6709C30.5583 31.9587 28.8417 32.9758 27.1167 33.4352C26.3667 33.632 26.1583 33.6567 24.75 33.6567C23.3417 33.6567 23.1333 33.632 22.3833 33.4352C20.6583 32.9758 18.9417 31.9587 17.7333 30.6709C16.3 29.1452 15.4583 27.2996 15.2333 25.1505L15.1417 24.2728H10.05C6.19167 24.2728 4.925 24.2974 4.85 24.3712Z" fill="#28A745"/>
<path d="M17.4248 26.2898C17.1915 26.5768 17.2082 26.8557 17.4582 27.1018L17.6582 27.3069H24.7498H31.8415L32.0415 27.1018C32.2915 26.8557 32.3082 26.5768 32.0748 26.2898L31.9082 26.0765H24.7498H17.5915L17.4248 26.2898Z" fill="#28A745"/>
<path d="M18.8333 28.6194C18.625 28.8245 18.6167 29.2018 18.825 29.4479L18.9833 29.6448H24.75H30.5167L30.675 29.4479C30.8833 29.2018 30.875 28.8245 30.6667 28.6194C30.5 28.4554 30.3917 28.4554 24.75 28.4554C19.1083 28.4554 19 28.4554 18.8333 28.6194Z" fill="#28A745"/>
<path d="M23.2916 30.9983C23.2083 31.0886 23.1416 31.2772 23.1416 31.4085C23.1416 31.5397 23.2083 31.7284 23.2916 31.8186C23.4333 31.9663 23.5416 31.9827 24.7499 31.9827C25.9583 31.9827 26.0666 31.9663 26.2083 31.8186C26.2916 31.7284 26.3583 31.5397 26.3583 31.4085C26.3583 31.2772 26.2916 31.0886 26.2083 30.9983C26.0666 30.8507 25.9583 30.8343 24.7499 30.8343C23.5416 30.8343 23.4333 30.8507 23.2916 30.9983Z" fill="#28A745"/>
</svg>
