<svg width="48" height="48" viewBox="0 0 48 48" fill="none" xmlns="http://www.w3.org/2000/svg">
<path d="M9.1005 1.12258C8.14296 1.39335 7.42949 2.0993 7.14786 3.06634C6.95071 3.75294 6.95071 44.2335 7.14786 44.9201C7.32622 45.539 7.72051 46.0902 8.19928 46.4383C9.04418 47.0282 8.68744 47.0185 20.1686 46.9895L30.6266 46.9605L31.1617 46.6898C31.7343 46.3996 32.1474 45.9741 32.4759 45.3359C32.6919 44.9394 32.6919 44.8524 32.72 41.3323L32.7482 37.7252H31.9221C31.4527 37.7156 30.9364 37.6575 30.7204 37.5802C30.5139 37.5028 30.3168 37.4351 30.2792 37.4351C30.2323 37.4351 30.2041 37.6962 30.2041 38.0154V38.5956H19.8776H9.55112V23.2679V7.94025H19.8776H30.2041V12.35C30.2041 16.5179 30.2135 16.7597 30.3731 16.6823C30.4576 16.6437 31.0302 16.5856 31.6404 16.5663L32.7482 16.5276L32.72 9.79697L32.6919 3.05667L32.4102 2.53447C32.1004 1.96391 31.6968 1.57709 31.049 1.2483L30.6266 1.02588L20.1123 1.00653C11.2034 0.987194 9.52295 1.00653 9.1005 1.12258ZM22.0837 4.02372C22.2152 4.14943 22.3184 4.34284 22.3184 4.45889C22.3184 4.56526 22.2152 4.76834 22.0837 4.89406C21.8584 5.13582 21.849 5.13582 19.9339 5.13582C18.8825 5.13582 17.9437 5.10681 17.8593 5.0778C17.7842 5.03912 17.6527 4.89406 17.5682 4.73933C17.4462 4.4879 17.4462 4.42987 17.5776 4.17844C17.6527 4.02372 17.7654 3.87866 17.8311 3.84965C17.8968 3.82064 18.8356 3.79163 19.9058 3.79163C21.8584 3.78196 21.8584 3.78196 22.0837 4.02372ZM22.6001 42.5605C22.7033 42.6668 22.7878 42.8796 22.7878 43.044C22.7878 43.2084 22.7033 43.4211 22.6001 43.5275C22.4217 43.7113 22.2903 43.7209 19.9339 43.7209C17.5776 43.7209 17.4462 43.7113 17.2115 43.5178C17.0519 43.3921 16.9674 43.2277 16.9674 43.044C16.9674 42.8603 17.0519 42.6959 17.2115 42.5701C17.4462 42.3767 17.5776 42.3671 19.9339 42.3671C22.2903 42.3671 22.4217 42.3767 22.6001 42.5605Z" fill="#9B51E0"/>
<path d="M21.3322 9.62162C21.0694 9.73767 20.9192 10.0858 18.9665 15.1725C17.671 18.5281 16.873 20.7136 16.873 20.9264C16.873 21.1295 16.9388 21.3229 17.0608 21.4292C17.3237 21.671 17.8588 21.671 18.0841 21.4196C18.2249 21.2745 22.2428 11.0238 22.393 10.4339C22.4681 10.1342 22.2241 9.69899 21.9236 9.59261C21.7641 9.53459 21.6326 9.48624 21.6232 9.48624C21.6138 9.49591 21.4918 9.55393 21.3322 9.62162Z" fill="#9B51E0"/>
<path d="M13.2313 13.3752C12.3864 14.2456 11.6354 15.0772 11.5603 15.2223C11.2975 15.7251 11.4383 15.9379 13.1562 17.6882C14.6301 19.2065 14.7991 19.3516 15.0995 19.3516C15.5313 19.3516 15.8411 19.0228 15.8411 18.5779C15.8411 18.2878 15.6909 18.1041 14.555 16.9146L13.2689 15.5801L14.555 14.2456C15.644 13.1141 15.8411 12.8627 15.8411 12.6113C15.8411 12.1567 15.5219 11.8086 15.1089 11.8086C14.7991 11.8086 14.6489 11.9343 13.2313 13.3752Z" fill="#9B51E0"/>
<path d="M24.1488 12.0504C23.67 12.5339 23.7921 12.7757 25.3035 14.3423L26.4957 15.5801L25.3035 16.8082C24.0925 18.0751 23.9141 18.3168 23.9141 18.6746C23.9141 18.9938 24.3272 19.3516 24.6839 19.3516C24.9655 19.3516 25.172 19.1775 26.6647 17.6302C28.1667 16.0733 28.3263 15.8702 28.3263 15.5801C28.3263 15.2803 28.1667 15.0869 26.6553 13.53C25.172 12.002 24.9561 11.8086 24.6839 11.8086C24.4774 11.8086 24.299 11.8956 24.1488 12.0504Z" fill="#9B51E0"/>
<path d="M30.5889 18.1036C30.4763 18.2293 30.3918 18.5098 30.3542 18.8482C30.2134 20.1537 30.2416 20.0861 29.7065 20.2698C29.4436 20.3568 29.0305 20.5309 28.7958 20.6566L28.3734 20.879L27.6693 20.3568C27.2844 20.0667 26.8714 19.8346 26.7493 19.8346C26.3926 19.8346 26.0452 20.0764 25.435 20.7533C24.6559 21.6043 24.6465 21.8364 25.3693 22.7744C25.651 23.1419 25.8857 23.4514 25.8857 23.461C25.8857 23.4707 25.7636 23.7608 25.6134 24.0993C25.4632 24.4378 25.313 24.8536 25.2848 25.0277C25.2097 25.3564 25.2379 25.3468 24.0644 25.5499C23.1069 25.7143 23.0693 25.7819 23.0693 27.1745C23.0693 28.6928 23.0881 28.7218 24.3085 28.8572L25.2004 28.9635L25.3599 29.4567C25.4444 29.7372 25.6134 30.1627 25.7355 30.3948L25.9608 30.8299L25.4538 31.5842C24.7497 32.648 24.7591 32.735 25.7261 33.7311C26.7212 34.7465 26.815 34.7658 27.7914 33.9632L28.4767 33.4023L28.8052 33.5763C28.9836 33.673 29.3873 33.8471 29.7065 33.9535C30.3448 34.1759 30.2885 34.0889 30.495 35.3364C30.6452 36.2744 30.7954 36.3711 32.044 36.3711C33.0297 36.3711 33.424 36.2744 33.546 35.9939C33.5836 35.9069 33.6587 35.4524 33.715 34.9882L33.8183 34.1275L34.3252 33.9535C34.5975 33.8471 35.0105 33.673 35.2358 33.5667L35.6489 33.3539L36.3248 33.8471C37.2917 34.553 37.5358 34.5337 38.3432 33.7311C38.9721 33.1122 39.2162 32.7447 39.2162 32.4159C39.2162 32.3192 38.9721 31.8937 38.6717 31.4875L38.1272 30.7429L38.3807 30.1917C38.5215 29.8919 38.6811 29.4664 38.7375 29.2536L38.8407 28.8572L39.6011 28.7411C40.9342 28.5284 40.9999 28.4413 40.9999 26.9327C40.9999 25.6079 40.9248 25.5208 39.7326 25.3661C39.2726 25.2984 38.8689 25.2211 38.8313 25.1824C38.8032 25.134 38.7187 24.9309 38.653 24.7182C38.5872 24.5054 38.4277 24.1186 38.3056 23.8575L38.0709 23.3837L38.5497 22.6777C38.9252 22.1265 39.0285 21.8944 39.0285 21.5946C39.0285 21.2562 38.9628 21.1595 38.2868 20.4825C37.3293 19.5252 37.1791 19.5058 36.2122 20.2795L35.5456 20.821L34.9073 20.5212C34.5599 20.3568 34.1469 20.2021 33.9873 20.1634C33.7056 20.1054 33.6962 20.0957 33.5836 19.2351C33.5085 18.6838 33.3958 18.2873 33.2832 18.1326C33.1048 17.9102 33.0579 17.9005 31.9407 17.9005C30.8799 17.9005 30.7579 17.9199 30.5889 18.1036ZM33.2456 24.3701C35.4893 25.5015 35.4799 28.7314 33.2269 29.8629C31.3493 30.8106 29.0775 29.2827 29.0775 27.0778C29.0775 25.8593 29.9224 24.6795 31.1334 24.2153C31.6497 24.0219 32.6918 24.0993 33.2456 24.3701Z" fill="#9B51E0"/>
</svg>
