<svg width="49" height="48" viewBox="0 0 49 48" fill="none" xmlns="http://www.w3.org/2000/svg">
<path d="M23.9304 7.05233C23.855 7.08934 18.8488 8.81955 12.8056 10.9013C6.76235 12.9924 1.75618 14.7596 1.68075 14.8336C1.56762 14.9262 1.52991 15.25 1.51105 16.2308C1.48277 17.3596 1.50162 17.5353 1.65247 17.7111C1.78446 17.8684 4.60338 18.8862 13.1638 21.847L24.5055 25.77L35.8378 21.847C44.1625 18.9602 47.2172 17.8684 47.3397 17.7204C47.4717 17.5539 47.5 17.3318 47.5 16.2955C47.5 15.2592 47.4717 15.0372 47.3397 14.8799C47.2266 14.7504 43.5969 13.455 36.1395 10.8736C25.1278 7.06159 24.4584 6.84878 23.9304 7.05233Z" fill="#FFC107"/>
<path d="M4.32031 23.699V26.8911H5.2631H6.20588V24.0229C6.20588 22.4407 6.18702 21.1546 6.16817 21.1546C6.14931 21.1546 5.72506 21.0066 5.22538 20.8308L4.32031 20.5069V23.699Z" fill="#FFC107"/>
<path d="M10.4492 25.6704C10.4492 27.8262 10.4869 28.9457 10.5812 29.5749C11.1657 33.3314 13.3153 35.7833 17.1147 37.0324C19.3774 37.7818 21.6589 38.0409 25.2698 37.9669C27.7681 37.9206 28.8712 37.8096 30.4834 37.4395C34.3676 36.5513 36.9508 34.4787 37.9596 31.4254C38.4404 29.982 38.4687 29.7137 38.5159 26.0867L38.563 22.6448L38.0539 22.8114C37.7805 22.9039 34.6505 23.9864 31.1056 25.217C27.5607 26.4476 24.591 27.4468 24.4967 27.4468C24.4024 27.4468 21.8475 26.5864 18.8211 25.5408C15.8042 24.4953 12.6742 23.4128 11.8917 23.1352L10.4492 22.6448V25.6704Z" fill="#FFC107"/>
<path d="M4.90553 27.5376C4.35871 27.6579 3.84961 28.2963 3.84961 28.8514C3.84961 29.2863 4.21729 29.8322 4.6604 30.0358C5.24493 30.3133 5.75403 30.2208 6.22542 29.7582C6.5554 29.4436 6.58368 29.3603 6.58368 28.9162C6.58368 27.917 5.86716 27.3248 4.90553 27.5376Z" fill="#FFC107"/>
<path d="M4.28234 31.1189C4.11264 31.6648 2.62305 39.1963 2.62305 39.5108C2.62305 40.0752 2.90588 40.4638 3.54697 40.7507C4.03722 40.982 4.17864 41.0005 5.26284 41.0005C6.36589 41.0005 6.47903 40.982 6.9787 40.7414C7.59151 40.4453 7.90263 40.0382 7.90263 39.5386C7.90263 39.3628 7.52552 37.3735 7.05413 35.1252C6.59216 32.8768 6.20562 31.0171 6.20562 30.9986C6.20562 30.9801 5.78137 30.9616 5.27227 30.9616C4.46147 30.9616 4.32948 30.9801 4.28234 31.1189Z" fill="#FFC107"/>
</svg>
