<svg width="49" height="48" viewBox="0 0 49 48" fill="none" xmlns="http://www.w3.org/2000/svg">
<path d="M15.8337 6.00153C11.0951 8.20064 7.11837 10.0807 7.00116 10.1755C6.84209 10.3049 6.79186 10.4256 6.79186 10.7102C6.79186 11.288 7.00116 11.4001 8.01419 11.4001H8.84302V12.1849C8.84302 12.6161 8.87651 13.0387 8.92674 13.1249C9.05233 13.3664 9.47093 13.4699 10.3165 13.4699H11.1035V21.6627V29.8555H10.1826C9.31186 29.8555 9.24488 29.8641 9.05233 30.0711C8.85977 30.2608 8.84302 30.347 8.84302 31.0628V31.839H8.0393C7.26907 31.839 7.22721 31.8476 6.99279 32.0891L6.75 32.3392V33.65C6.75 35.004 6.82535 35.3748 7.12674 35.4955C7.20209 35.5214 9.20302 35.5473 11.5723 35.5473H15.884L15.8588 36.9013L15.8337 38.2552L14.2514 39.1694L12.6691 40.0921L12.2086 39.8075C11.4467 39.3332 10.5342 39.3073 9.75558 39.7472C8.91837 40.2129 8.50814 40.9631 8.50814 42.0066C8.50814 43.1795 9.2114 44.0937 10.3333 44.3869C11.1788 44.6111 11.9826 44.3869 12.6356 43.7487C13.1128 43.283 13.297 42.8518 13.3556 42.0584L13.4058 41.3685L15.2644 40.2991C16.5453 39.5574 17.1398 39.1694 17.2067 39.0228C17.2653 38.8934 17.2988 38.1776 17.2988 37.1858V35.5473H17.4914C17.6002 35.5473 17.7593 35.6249 17.843 35.7198C18.0356 35.9354 19.0905 36.6857 19.5426 36.9185L19.8942 37.0996V37.9016V38.7037L19.1156 39.8507L18.3286 41.0063L17.5416 41.0149C16.6458 41.0235 16.2774 41.1787 15.7584 41.7221C15.2728 42.2309 15.0886 42.7311 15.0802 43.4814C15.0802 44.016 15.1221 44.2144 15.3147 44.6197C15.7333 45.508 16.5119 45.9909 17.5081 45.9996C18.4793 46.0168 19.2663 45.5339 19.71 44.6542C19.9026 44.2748 19.936 44.1109 19.936 43.4814C19.936 42.8432 19.9109 42.6966 19.71 42.3257L19.4756 41.9118L20.3965 40.5664L21.3174 39.2211V38.5053C21.3174 38.0827 21.3509 37.7895 21.4012 37.7895C21.4514 37.7895 21.7444 37.8671 22.0709 37.9534C22.3891 38.0482 22.8663 38.1431 23.1342 38.1776C24.0886 38.2811 23.9965 38.1172 23.9965 39.6782V41.0494L23.6198 41.2391C23.1342 41.4806 22.6151 42.0929 22.4393 42.6362C22.2551 43.2054 22.3137 44.1626 22.5565 44.6456C22.9835 45.4994 23.7705 45.9823 24.75 45.9823C25.7295 45.9823 26.5165 45.4994 26.9435 44.6456C27.1863 44.1626 27.2449 43.2054 27.0607 42.6362C26.8849 42.0929 26.3658 41.4806 25.8802 41.2391L25.5035 41.0494V39.6782C25.5035 38.1172 25.4114 38.2811 26.3658 38.1776C26.6337 38.1431 27.1109 38.0482 27.4291 37.9534C27.7556 37.8671 28.0486 37.7895 28.0988 37.7895C28.1491 37.7895 28.1826 38.0827 28.1826 38.5053V39.2211L29.0951 40.5578L30.016 41.8945L29.79 42.3689C29.5974 42.7569 29.564 42.9467 29.564 43.5245C29.564 44.1281 29.5974 44.2748 29.8151 44.6801C30.2923 45.5597 31.004 45.9823 32.0337 45.9823C32.4942 45.9823 32.6867 45.9306 33.1137 45.715C33.9509 45.2838 34.3946 44.5335 34.403 43.5245C34.4114 42.8001 34.1937 42.2309 33.7249 41.7307C33.1974 41.1615 32.8542 41.0235 31.9584 41.0149L31.1714 41.0063L30.3844 39.8507L29.6058 38.7037V37.9189V37.1427L30.2421 36.7546C30.5853 36.5477 31.096 36.1855 31.3723 35.9612C32.2012 35.2713 32.2012 35.2627 32.2012 37.1858C32.2012 38.1517 32.2346 38.902 32.2933 39.0141C32.3519 39.1521 32.9881 39.5661 34.2356 40.2905L36.0942 41.3685L36.1444 42.0153C36.203 42.8001 36.3537 43.1795 36.7974 43.6797C37.9612 44.9819 40.0793 44.6111 40.8077 42.9812C40.9835 42.5758 41.0086 42.4206 40.9751 41.8083C40.95 41.2305 40.8998 41.0149 40.7156 40.6958C40.2635 39.9024 39.4598 39.4281 38.5723 39.4281C38.0616 39.4281 37.6765 39.5488 37.216 39.8507L36.8393 40.0921L35.2486 39.178L33.6663 38.2552L33.6412 36.9013L33.616 35.5473H37.9277C40.297 35.5473 42.2979 35.5214 42.3733 35.4955C42.6746 35.3748 42.75 35.004 42.75 33.65V32.3392L42.5072 32.0891C42.2728 31.8476 42.2309 31.839 41.4607 31.839H40.657V31.0283C40.657 30.2522 40.6486 30.2004 40.4393 30.0366C40.2467 29.8813 40.096 29.8555 39.3091 29.8555H38.3965V21.6627V13.4699H39.1835C40.0291 13.4699 40.4477 13.3664 40.5733 13.1249C40.6235 13.0387 40.657 12.6161 40.657 12.1849V11.4001H41.4858C42.1723 11.4001 42.3481 11.3743 42.5072 11.2363C42.7667 11.0207 42.7835 10.4429 42.5407 10.2014C42.256 9.91681 25.0598 2 24.7416 2C24.5491 2 21.6188 3.31947 15.8337 6.00153ZM39.2337 11.702V12.0038H24.75H10.2663V11.702V11.4001H24.75H39.2337V11.702ZM18.4709 15.8329V18.1958L17.9937 18.6012C17.7258 18.8254 17.2319 19.3083 16.9053 19.6705L16.2942 20.326V16.8936V13.4699H17.3826H18.4709V15.8329ZM25.8384 14.8239V16.1864H24.75H23.6616V14.8239V13.4699H24.75H25.8384V14.8239ZM33.2058 16.8936V20.326L32.5947 19.6705C32.2681 19.3083 31.7742 18.8254 31.5147 18.6012L31.0291 18.1958V15.8329V13.4699H32.1174H33.2058V16.8936ZM26.1398 17.7388C29.1537 18.239 31.7156 20.1621 33.0551 22.9132C33.7584 24.3534 34.043 25.5952 34.043 27.2251C34.043 29.7951 33.1891 31.977 31.4644 33.8397C28.1909 37.3669 23.0086 37.8326 19.216 34.935C18.5379 34.4175 17.4495 33.2533 17.0309 32.6065C15.9509 30.9248 15.457 29.2173 15.457 27.1906C15.4653 24.6552 16.336 22.4216 18.044 20.6019C20.1956 18.3079 23.1928 17.2472 26.1398 17.7388ZM14.8626 31.5803L14.9463 31.839H12.6021H10.2663V31.5803V31.3215H12.5184H14.7705L14.8626 31.5803ZM39.2337 31.5803V31.839H36.8979H34.5537L34.6374 31.5803L34.7295 31.3215H36.9816H39.2337V31.5803Z" fill="#00B8D9"/>
<path d="M23.1589 19.1101C20.0947 19.7827 17.7673 22.0681 16.9552 25.1986C16.6873 26.2421 16.6789 28.1911 16.9468 29.2432C17.7338 32.3306 20.1198 34.6936 23.0919 35.3232C23.9375 35.5043 25.5617 35.5043 26.4073 35.3232C27.7049 35.0472 29.1031 34.3314 30.0994 33.4173C31.2045 32.4169 32.184 30.7266 32.5524 29.2088C32.8119 28.1135 32.8119 26.337 32.5524 25.2503C31.8324 22.3009 29.6389 20.007 26.7589 19.2049C26.0305 19.0066 23.9124 18.9462 23.1589 19.1101ZM25.1849 22.4993C25.2603 22.5769 25.3524 22.7925 25.3775 22.9995C25.4277 23.3444 25.4612 23.3703 25.8798 23.5514C26.4407 23.7929 26.9263 24.319 26.9263 24.6812C26.9263 25.2417 26.2733 25.4832 25.8714 25.0692C25.5533 24.7415 25.3859 24.6812 24.7914 24.6812C24.1468 24.6812 23.9626 24.7588 23.7868 25.1124C23.5691 25.5436 23.6194 25.9489 23.9459 26.2852C24.2054 26.5526 24.2724 26.5784 24.7245 26.5784C25.3691 26.5784 25.8966 26.7682 26.3403 27.1562C27.5124 28.1911 27.2696 30.1488 25.8882 30.8473C25.4696 31.0629 25.4361 31.0974 25.3775 31.451C25.3273 31.8563 25.0342 32.184 24.7496 32.184C24.4649 32.184 24.1719 31.8477 24.1217 31.4596C24.0714 31.1147 24.038 31.0802 23.7533 30.9853C23.3933 30.8818 22.6733 30.2695 22.5728 29.9935C22.4975 29.7607 22.6314 29.3554 22.824 29.2519C23.117 29.0966 23.3933 29.157 23.7031 29.4588C24.2138 29.959 25.1431 29.9763 25.6035 29.5106C25.9384 29.1656 25.9384 28.5878 25.6035 28.2084C25.3859 27.9583 25.3105 27.9324 24.6575 27.872C23.8538 27.7944 23.4268 27.6133 23.0166 27.1649C21.9784 26.0524 22.3384 24.1723 23.7031 23.5514C24.0296 23.4048 24.0631 23.3531 24.1133 23.0081C24.2138 22.3441 24.7328 22.094 25.1849 22.4993Z" fill="#00B8D9"/>
</svg>
