<svg width="49" height="48" viewBox="0 0 49 48" fill="none" xmlns="http://www.w3.org/2000/svg">
<path d="M18.3842 4.08225C16.8447 4.35566 15.3912 5.09778 14.219 6.20704C13.3984 6.98822 12.9217 7.63659 12.4216 8.65212C11.937 9.65202 11.7104 10.4801 11.6166 11.5581C11.39 14.175 12.2418 16.3623 14.2971 18.409C15.1802 19.2917 16.3758 20.2291 19.0719 22.1508C21.3304 23.76 22.5495 24.6896 23.8233 25.7833L24.4954 26.3535L25.6911 25.3536C27.0352 24.2209 28.3012 23.2601 30.7551 21.5024C34.5296 18.7918 35.8816 17.4559 36.7412 15.6046C37.1788 14.6593 37.3351 13.9563 37.3742 12.6908C37.4054 11.9799 37.382 11.355 37.3195 10.9722C36.7803 7.58191 34.1857 4.83218 30.8723 4.15256C29.9032 3.94945 28.4809 3.94945 27.6917 4.15256C26.621 4.42597 25.6207 4.9806 24.7924 5.76178L24.4876 6.043L24.0265 5.61335C23.4248 5.05091 22.6355 4.59002 21.7837 4.29317C21.1585 4.06663 21.0178 4.05101 19.9316 4.03538C19.2908 4.01976 18.5874 4.04319 18.3842 4.08225ZM25.5973 12.2846V13.4563H26.7695H27.9417V14.6281V15.7999H26.7695H25.5973V16.9716V18.1434H24.4641H23.331V16.9716V15.7999H22.1588H20.9866V14.6281V13.4563H22.1588H23.331V12.2846V11.1128H24.4641H25.5973V12.2846Z" fill="#00C49A"/>
<path d="M5.47395 14.8778C5.04413 15.2137 4.73936 16.2136 4.58306 17.8229C4.47365 18.8618 4.47365 23.2755 4.57524 25.0722C4.71591 27.4313 4.88002 28.8921 5.05195 29.4077C5.63024 31.1419 6.84153 32.712 9.69393 35.4383C12.7886 38.399 13.8905 39.5083 14.5235 40.2972C15.5472 41.5627 16.1021 42.6564 16.1958 43.5938L16.2427 44H19.7828H23.3307V38.7036C23.3307 32.9776 23.3229 32.9151 22.8931 31.8449C22.3539 30.4935 21.5412 29.5249 20.1658 28.6109C18.173 27.2751 16.5006 26.3845 15.0705 25.9002C14.3047 25.6424 14.1484 25.6112 13.3669 25.6112C12.601 25.6034 12.476 25.6268 12.2259 25.783C11.9055 25.9783 11.6867 26.3611 11.6867 26.7282C11.6867 27.0876 11.9602 27.7985 12.2728 28.275C12.7495 28.9937 13.3122 29.4624 15.9848 31.4075C17.4228 32.4543 18.6106 33.337 18.6262 33.3682C18.6341 33.3995 18.3527 33.8135 17.9932 34.29L17.3446 35.1649L14.8048 33.3292C13.4138 32.3215 12.0384 31.2903 11.7492 31.0325C10.6083 30.0092 9.56108 28.2828 9.1469 26.7517C9.07656 26.5095 8.97497 25.7049 8.91245 24.9784C8.47483 20.0883 7.75586 16.6433 6.88061 15.3544C6.45079 14.7138 5.91157 14.5341 5.47395 14.8778Z" fill="#00C49A"/>
<path d="M42.6261 14.8232C41.5476 15.409 40.6489 18.9321 40.1332 24.5878C39.9847 26.1814 39.9378 26.4783 39.6955 27.2048C39.2345 28.5874 38.4842 29.8061 37.484 30.806C37.2026 31.0872 35.8116 32.1496 34.3893 33.1807C32.9748 34.2041 31.7713 35.0712 31.7323 35.1024C31.6385 35.1727 30.3334 33.501 30.3803 33.376C30.3959 33.337 31.5447 32.4699 32.9436 31.4622C34.3424 30.4466 35.71 29.3999 35.9757 29.1343C36.9447 28.189 37.4527 27.0954 37.2495 26.4158C36.7884 24.8847 33.8423 25.4706 29.9271 27.8688C28.3328 28.8452 27.5748 29.4545 26.9574 30.2748C26.4964 30.8841 26.0431 31.8293 25.8165 32.6339C25.6524 33.2432 25.6445 33.3838 25.6133 38.6333L25.5898 44H29.1456H32.7091L32.7404 43.8203C32.9123 42.9376 32.9983 42.6486 33.303 42.0627C33.7016 41.2581 34.4362 40.266 35.3193 39.3286C35.9366 38.6646 36.2727 38.3365 39.1876 35.5633C42.3916 32.5246 43.6889 30.7357 44.0796 28.8452C44.5329 26.6814 44.6579 18.5728 44.2672 16.6199C44.0171 15.3778 43.6029 14.706 43.095 14.706C42.9465 14.7138 42.7355 14.7607 42.6261 14.8232Z" fill="#00C49A"/>
</svg>
