<svg width="49" height="48" viewBox="0 0 49 48" fill="none" xmlns="http://www.w3.org/2000/svg">
<path d="M5.48148 4.20536C5.31481 4.3125 5.07407 4.54464 4.96296 4.70536L4.75 5.00893V24V42.9911L4.96296 43.2946C5.07407 43.4554 5.31481 43.6875 5.48148 43.7946L5.7963 44H20.6296H35.463L35.7778 43.7946C35.9537 43.6875 36.1852 43.4196 36.3056 43.1964C36.4907 42.8304 36.5093 42.6875 36.5093 41.1339V39.4643L35.8889 39.2589C32.0463 38.0446 29.1019 34.75 28.4074 30.8839C28.2963 30.2946 28.2685 29.1607 28.2685 25.4286C28.2685 20.9196 28.2778 20.7054 28.4444 20.5089C28.6204 20.2946 28.6482 20.2946 30.4167 20.2857C31.9537 20.2857 32.3056 20.2589 32.9352 20.0893C34.1482 19.7679 34.9815 19.3214 35.7407 18.5982C36.1204 18.25 36.4444 17.9821 36.463 18.0089C36.4907 18.0268 36.5093 17.9464 36.5093 17.8304C36.5093 17.7143 36.5093 14.8214 36.5093 11.4107V5.20536L36.2963 4.80357C36.1852 4.58036 35.9537 4.3125 35.7778 4.20536L35.463 4H20.6296H5.7963L5.48148 4.20536ZM22.9815 9.94643L23.2685 10.1786V11.7768V13.375H24.8889C25.9444 13.375 26.5833 13.4107 26.7407 13.4821C27.2037 13.6875 27.25 13.9018 27.25 16.0893V18.0893L27.0093 18.3661L26.7685 18.6429H25.0185H23.2685V20.25C23.2685 21.8482 23.2685 21.8661 23.037 22.0804L22.8148 22.3036H20.5926H18.3796L18.1389 22.0268C17.8981 21.7589 17.8981 21.7411 17.8981 20.1964V18.6429H16.1852C14.4815 18.6429 14.463 18.6429 14.2407 18.4196L14.0093 18.2054V16.0625C14.0093 13.9286 14.0093 13.9196 14.2315 13.6696L14.4537 13.4196L16.1759 13.3929L17.8981 13.3661V11.875C17.9074 10.8125 17.9352 10.3214 18.0278 10.1696C18.2685 9.75 18.4537 9.72321 20.6481 9.71428H22.6944L22.9815 9.94643ZM27.0556 25.375C27.2963 25.5 27.5278 25.8482 27.5278 26.0982C27.5278 26.1607 27.4167 26.3393 27.287 26.4911L27.0463 26.7679H17.7593C8.50926 26.7679 8.48148 26.7679 8.23148 26.5804C7.82407 26.2768 7.91667 25.625 8.40741 25.3571C8.5463 25.2857 11.0185 25.2589 17.6944 25.25C25.3981 25.25 26.8333 25.2679 27.0556 25.375ZM27.0093 31.2232C27.3241 31.5089 27.3796 31.7232 27.25 32.0357C27.0093 32.5982 27.4352 32.5804 17.4907 32.5536L8.47222 32.5268L8.23148 32.3125C7.77778 31.9018 7.99074 31.1696 8.59259 31.0268C8.69444 31 12.8241 30.9911 17.7778 31L26.7685 31.0089L27.0093 31.2232ZM28.8704 36.9911C29.1667 37.2679 29.1667 37.6607 28.8796 37.9911L28.6574 38.2411L18.713 38.2679C13.25 38.2768 8.68519 38.2679 8.57407 38.2411C7.99074 38.1071 7.77778 37.3036 8.23148 36.9554C8.48148 36.7679 8.5 36.7679 18.5648 36.7679H28.6482L28.8704 36.9911Z" fill="#007BFF"/>
<path d="M36.7594 19.7849C35.5465 20.9724 33.4168 21.7402 31.1206 21.8295L29.8428 21.8831V25.9188C29.8428 30.4188 29.8891 30.9099 30.4354 32.3117C30.8798 33.4634 31.528 34.4456 32.4724 35.4009C33.7224 36.6688 35.1576 37.517 36.7687 37.9367L37.4446 38.1152L38.065 37.9277C41.4909 36.8742 44.0002 34.1152 44.6113 30.7045C44.7224 30.1242 44.7502 29.0706 44.7502 25.9099V21.8563H43.8335C41.5928 21.8563 39.3335 21.0974 37.9539 19.8831C37.6298 19.5974 37.3243 19.3563 37.278 19.3563C37.2317 19.3563 37.0002 19.5527 36.7594 19.7849ZM42.352 25.2581C42.6298 25.4009 42.8057 25.8563 42.6946 26.1509C42.6391 26.3117 41.5372 27.267 39.5002 28.9188C37.7872 30.3117 36.2965 31.4992 36.1946 31.5617C35.7131 31.8295 35.5835 31.7492 33.7594 30.1063C32.8057 29.2402 31.9724 28.4545 31.9076 28.3474C31.7317 28.0527 31.7594 27.8831 32.028 27.5795C32.2131 27.3652 32.3428 27.3027 32.5835 27.3027C32.852 27.3027 33.0372 27.4188 33.8335 28.1242C34.3428 28.5795 35.0094 29.1688 35.3057 29.4277L35.852 29.9099L38.778 27.5349C41.778 25.0974 41.8983 25.0259 42.352 25.2581Z" fill="#007BFF"/>
</svg>
