<svg width="24" height="25" viewBox="0 0 24 25" fill="none" xmlns="http://www.w3.org/2000/svg">
<g clip-path="url(#clip0_8_584)">
<path d="M21 10.0757C21 17.0757 12 23.0757 12 23.0757C12 23.0757 3 17.0757 3 10.0757C3 7.68874 3.94821 5.39955 5.63604 3.71172C7.32387 2.0239 9.61305 1.07568 12 1.07568C14.3869 1.07568 16.6761 2.0239 18.364 3.71172C20.0518 5.39955 21 7.68874 21 10.0757Z" stroke="white" stroke-linecap="round" stroke-linejoin="round"/>
<path d="M12 13.0757C13.6569 13.0757 15 11.7325 15 10.0757C15 8.41883 13.6569 7.07568 12 7.07568C10.3431 7.07568 9 8.41883 9 10.0757C9 11.7325 10.3431 13.0757 12 13.0757Z" stroke="white" stroke-linecap="round" stroke-linejoin="round"/>
</g>
<defs>
<clipPath id="clip0_8_584">
<rect width="24" height="24" fill="white" transform="translate(0 0.0756836)"/>
</clipPath>
</defs>
</svg>
