<svg width="49" height="48" viewBox="0 0 49 48" fill="none" xmlns="http://www.w3.org/2000/svg">
<path d="M7.29698 2.0625C5.2626 2.475 3.5751 3.94687 2.7876 6L2.51573 6.70312L2.4876 19.6875C2.45948 34.2094 2.42198 33.3562 3.1251 34.7625C3.81885 36.1406 5.10323 37.2375 6.62198 37.7531L7.39073 38.0156H24.5001H41.6095L42.3782 37.7531C43.8876 37.2469 45.1438 36.1687 45.8563 34.7812C46.5782 33.375 46.5407 34.2375 46.5126 19.6875L46.4845 6.70312L46.2782 6.15937C45.547 4.2375 44.347 3 42.5564 2.30625L41.797 2.01562L24.7345 2.00625C15.3501 1.99687 7.50323 2.025 7.29698 2.0625ZM26.9657 15.9469C29.1407 17.1937 31.0439 18.3281 31.1845 18.4594C32.0845 19.275 32.0564 20.8969 31.1189 21.6C30.622 21.9844 23.1595 26.0625 22.7657 26.1656C21.8282 26.4187 20.722 25.8375 20.3095 24.8719C20.2157 24.6281 20.1876 23.6062 20.1876 19.9031C20.1876 14.6812 20.1782 14.8312 20.872 14.175C21.3126 13.7437 21.8001 13.5844 22.4657 13.6312C22.9626 13.6687 23.2532 13.8187 26.9657 15.9469Z" fill="#FF4F81"/>
<path d="M3.4908 42.2156C2.7033 42.6375 2.27205 43.7812 2.56267 44.6719C2.71267 45.1312 3.18142 45.6469 3.6408 45.8531C3.99705 46.0219 4.62517 46.0312 16.4939 46.0312H28.9627L29.4408 45.7969C30.1439 45.4406 30.4439 44.9625 30.4814 44.1094C30.5283 43.1625 30.2095 42.5719 29.4502 42.1781C29.1127 42.0094 28.7002 42 16.5033 42H3.9033L3.4908 42.2156Z" fill="#FF4F81"/>
<path d="M35.6096 42.1594C34.194 42.9 34.0627 44.7844 35.3565 45.7031C35.7315 45.9562 35.8346 45.9844 36.5002 45.9844C37.1658 45.9844 37.269 45.9562 37.644 45.7031C38.9096 44.8031 38.7971 42.8812 37.4283 42.1875C36.9783 41.9531 36.0221 41.9437 35.6096 42.1594Z" fill="#FF4F81"/>
<path d="M43.5786 42.1499C42.7817 42.5812 42.4724 43.1624 42.5192 44.1093C42.5567 44.9624 42.8567 45.4406 43.5599 45.7968C44.9661 46.4906 46.5224 45.5531 46.5317 44.0062C46.5317 43.3687 46.1755 42.6656 45.6692 42.3187C45.3411 42.0843 45.1817 42.0468 44.5724 42.0187C44.0567 41.9999 43.7849 42.0374 43.5786 42.1499Z" fill="#FF4F81"/>
</svg>
