<svg width="16" height="17" viewBox="0 0 16 17" fill="none" xmlns="http://www.w3.org/2000/svg">
<g clip-path="url(#clip0_11_5096)">
<path d="M0.175015 0.665917C0.187515 0.684668 1.55939 2.68467 3.22502 5.10654C4.88752 7.52842 6.25001 9.51592 6.25001 9.52217C6.25001 9.52842 0.62814 16.0753 0.193765 16.5722C0.150015 16.6253 0.18439 16.6284 0.862515 16.6284H1.58127L4.23751 13.5378L6.89689 10.4503L9.01876 13.5378L11.1406 16.6284H13.4938C15.3688 16.6284 15.8438 16.619 15.8219 16.5878C15.8094 16.569 14.3969 14.5065 12.6813 12.0097C10.9625 9.51279 9.55314 7.45342 9.54377 7.43154C9.53126 7.39404 10.2906 6.50342 14.3031 1.83779L15.3469 0.628418H14.6281H13.9094L11.4 3.54717C10.0188 5.15029 8.88126 6.45967 8.87189 6.45342C8.86251 6.45029 7.95626 5.13467 6.85627 3.53779L4.85939 0.628418H2.50627C0.69064 0.628418 0.15939 0.637793 0.175015 0.665917ZM8.92189 8.49404C11.5344 12.2347 13.725 15.369 13.7906 15.4628L13.9094 15.6284H12.8688L11.8281 15.6253L7.07814 8.82842C4.46564 5.08779 2.27502 1.95342 2.20939 1.85967L2.08752 1.69092H3.13127L4.17189 1.69404L8.92189 8.49404Z" fill="white"/>
</g>
<defs>
<clipPath id="clip0_11_5096">
<rect width="16" height="16" fill="white" transform="translate(0 0.629395)"/>
</clipPath>
</defs>
</svg>
