<svg width="33" height="33" viewBox="0 0 33 33" fill="none" xmlns="http://www.w3.org/2000/svg">
<path d="M12.9312 1.96045C10.4062 2.26045 8.2687 4.13545 7.6312 6.62295L7.56245 6.8792L6.9562 6.92295C4.3562 7.0917 2.32495 8.73545 1.6437 11.2104C1.4812 11.7917 1.48745 13.5042 1.64995 14.0854C2.0187 15.4229 2.8812 16.6229 4.0312 17.3917C4.3812 17.6292 4.52495 17.7542 4.49995 17.8292C4.48745 17.8854 4.46245 20.4292 4.4562 23.4917C4.4312 29.8229 4.3937 29.3542 4.97495 29.9292C5.9687 30.9104 8.1937 31.4854 10.9374 31.4792C13.7499 31.4729 15.9749 30.8604 16.8999 29.8292C17.3937 29.2792 17.3749 29.5604 17.3749 23.6104V18.3417L22.1124 18.3229L26.8437 18.3042L27.3937 18.1292C29.0687 17.6104 30.2749 16.5604 30.9999 14.9979C31.3999 14.1479 31.4624 13.8167 31.4687 12.6479C31.4687 11.8479 31.4437 11.5292 31.3562 11.2104C30.8937 9.5417 29.7937 8.21045 28.2749 7.48545C27.5249 7.12295 26.7874 6.9542 25.7562 6.9042L24.9187 6.8667L24.8437 6.6167C24.6874 6.0667 24.2874 5.43545 23.7999 4.94795C22.7562 3.9042 21.1937 3.47295 19.7812 3.83545C19.5124 3.9042 19.1437 4.0292 18.9624 4.11045L18.6312 4.26045L18.1437 3.7792C17.1062 2.74795 15.8687 2.1417 14.4249 1.96045C13.8562 1.8917 13.5437 1.8917 12.9312 1.96045ZM15.0937 3.0792C16.1124 3.3792 17.1812 4.0792 17.7499 4.81045C18.3249 5.54795 18.4374 5.5917 18.9312 5.2792C19.6999 4.78545 20.4812 4.5917 21.2249 4.71045C22.0437 4.8417 22.6499 5.17295 23.2187 5.78545C23.6249 6.22295 23.8249 6.5917 23.9999 7.22295C24.1812 7.8917 24.1937 7.89795 25.3687 7.89795C26.4562 7.89795 26.9437 7.9792 27.6124 8.26045C28.8874 8.79795 29.8562 9.84795 30.3187 11.2104C30.5062 11.7542 30.5249 11.8729 30.5249 12.5854C30.5312 13.7229 30.2937 14.4667 29.6499 15.3729C29.3249 15.8417 28.6999 16.4167 28.2187 16.7042C27.7437 16.9917 26.9999 17.2479 26.4124 17.3292C26.1062 17.3729 24.2937 17.3979 21.4562 17.3979H16.9874L16.6874 17.1292C15.9624 16.4792 14.6062 16.0104 12.7499 15.7604C11.8687 15.6479 9.6937 15.6667 8.7937 15.7979C7.58745 15.9729 6.67495 16.2292 5.91245 16.6104C5.23745 16.9479 5.22495 16.9479 5.03745 16.8542C4.43745 16.5479 3.68745 15.8854 3.31245 15.3354C2.6937 14.4229 2.4687 13.6979 2.47495 12.5854C2.47495 11.8667 2.4937 11.7542 2.68745 11.1854C3.1437 9.84795 4.11245 8.7917 5.38745 8.26045C6.0062 7.99795 6.5562 7.89795 7.3812 7.89795C8.0187 7.89795 8.12495 7.88545 8.27495 7.7667C8.36245 7.69795 8.43745 7.5917 8.43745 7.5292C8.43745 7.28545 8.69995 6.4042 8.89995 5.9792C9.2062 5.3417 9.5437 4.8667 10.0374 4.3917C10.7812 3.68545 11.5437 3.26045 12.4374 3.0542C12.6937 2.99795 12.9374 2.93545 12.9687 2.92295C13.0062 2.91045 13.3999 2.91045 13.8437 2.92295C14.4249 2.9417 14.7812 2.98545 15.0937 3.0792ZM13.1562 16.7979C14.6374 17.0667 15.7249 17.4917 16.1437 17.9604C16.4374 18.2792 16.4374 18.4542 16.1562 18.7604C15.7374 19.2229 14.6874 19.6542 13.3749 19.9042C12.3687 20.0917 10.1624 20.1417 9.08745 19.9979C6.8187 19.6979 5.2062 18.9042 5.44995 18.2042C5.66245 17.5917 7.28745 16.9542 9.24995 16.7167C9.98745 16.6229 12.4937 16.6792 13.1562 16.7979ZM6.56245 20.4229C7.83745 20.8792 9.06245 21.0542 10.9374 21.0479C13.1374 21.0479 14.7312 20.7479 15.9562 20.1042C16.1312 20.0042 16.2999 19.9229 16.3312 19.9104C16.3562 19.8979 16.3749 20.3667 16.3749 20.9542V22.0167L16.1812 22.2417C15.7624 22.7167 14.4374 23.2104 12.9687 23.4417C11.8874 23.6167 9.66245 23.5917 8.5937 23.4042C7.1687 23.1542 6.09995 22.7354 5.62495 22.2417L5.4062 22.0167L5.38745 20.9229L5.3687 19.8354L5.6687 20.0229C5.83745 20.1292 6.23745 20.3042 6.56245 20.4229ZM7.0312 24.0542C8.36245 24.4354 10.0312 24.5979 11.8437 24.5104C13.4687 24.4354 15.0374 24.0729 15.9874 23.5604L16.3749 23.3479V24.3917C16.3749 25.7042 16.3499 25.7479 15.4062 26.2104C12.8624 27.4542 7.69995 27.2854 5.82495 25.9042C5.42495 25.6042 5.37495 25.4354 5.37495 24.3167V23.3542L5.92495 23.6229C6.22495 23.7729 6.72495 23.9667 7.0312 24.0542ZM5.7937 27.0354C6.89995 27.6229 8.4062 27.9354 10.3749 28.0042C12.5937 28.0729 14.5499 27.7479 15.8937 27.0792L16.3749 26.8417V27.8917C16.3749 29.0792 16.3687 29.0979 15.8437 29.4604C14.8312 30.1604 12.7187 30.5667 10.4687 30.5042C8.38745 30.4417 6.7687 30.0542 5.84995 29.3917C5.4187 29.0854 5.37495 28.9417 5.37495 27.8042C5.37495 27.2667 5.3937 26.8354 5.42495 26.8479C5.44995 26.8604 5.61245 26.9417 5.7937 27.0354Z" fill="#111111"/>
<path d="M6.13745 21.2293C5.9812 21.398 5.9562 21.6855 6.08745 21.873C6.13745 21.9418 6.2937 22.0355 6.43745 22.0855C6.76245 22.1918 6.99995 22.1168 7.1187 21.873C7.2312 21.6293 7.14995 21.4105 6.8812 21.2293C6.6062 21.0418 6.31245 21.0418 6.13745 21.2293Z" fill="#111111"/>
<path d="M6.14368 24.7228C5.98118 24.8978 5.95618 25.1853 6.08743 25.3728C6.21243 25.5541 6.64993 25.6853 6.86243 25.6103C7.08118 25.5353 7.22493 25.2416 7.14993 25.0353C7.07493 24.8228 6.81868 24.6478 6.52493 24.6041C6.32493 24.5791 6.25618 24.5978 6.14368 24.7228Z" fill="#111111"/>
<path d="M6.16872 28.2103C5.97497 28.3603 5.93747 28.6603 6.08747 28.8728C6.21247 29.0541 6.64997 29.1853 6.86247 29.1103C7.08122 29.0353 7.22497 28.7416 7.14997 28.5353C7.01872 28.1666 6.46247 27.9791 6.16872 28.2103Z" fill="#111111"/>
<path d="M22.5125 19.2229C22.4312 19.3167 22.3562 19.5229 22.3062 19.8042C22.2312 20.2604 22.0937 20.4604 21.8687 20.4604C21.8062 20.4604 21.575 20.3479 21.3625 20.2104C20.7062 19.7979 20.675 19.8042 19.7062 20.8104C18.725 21.8229 18.725 21.8292 19.1562 22.4729C19.4125 22.8542 19.4312 22.9042 19.3687 23.0792C19.325 23.1917 19.2437 23.2854 19.1687 23.3042C19.0937 23.3229 18.85 23.3792 18.625 23.4292C18.0125 23.5667 18 23.5979 18.0062 24.7354C18.0062 25.8167 18.0625 26.2604 18.2125 26.3667C18.2687 26.4104 18.4875 26.4792 18.7062 26.5167C19.275 26.6292 19.2937 26.6354 19.375 26.8354C19.4437 27.0042 19.4312 27.0542 19.1625 27.4792C19.0062 27.7292 18.875 28.0042 18.875 28.0854C18.875 28.1979 19.1125 28.4729 19.7375 29.0979C20.7562 30.1167 20.7625 30.1229 21.425 29.6792C21.8187 29.4167 21.8625 29.4042 22.0437 29.4729C22.2187 29.5417 22.2437 29.5792 22.3437 30.0667C22.5125 30.8667 22.5 30.8604 23.9687 30.8167C25.1312 30.7854 25.1562 30.7854 25.2812 30.6292C25.3687 30.5354 25.4437 30.3042 25.5 30.0042C25.575 29.5479 25.5875 29.5229 25.7812 29.4604C25.9687 29.3979 26.025 29.4167 26.4562 29.6854C27.075 30.0604 27.1375 30.0479 27.8187 29.3479C28.7062 28.4354 28.9375 28.1604 28.9375 28.0104C28.9375 27.9292 28.8062 27.6729 28.65 27.4354C28.3687 27.0167 28.3437 26.8854 28.4875 26.6667C28.5125 26.6229 28.7437 26.5479 29 26.4917C29.7937 26.3229 29.75 26.4104 29.75 24.9667C29.75 23.4542 29.7687 23.4979 29.0062 23.3417C28.5312 23.2479 28.4812 23.2229 28.4062 23.0479C28.3312 22.8729 28.3437 22.8354 28.6 22.4417C29.0375 21.7729 29.0312 21.7479 28.0562 20.7979C27.6125 20.3542 27.1937 19.9729 27.1375 19.9479C26.9312 19.8667 26.8187 19.9042 26.4 20.1792C26.0625 20.4104 25.9437 20.4604 25.8 20.4292C25.5875 20.3792 25.5375 20.2917 25.4375 19.8042C25.3562 19.4042 25.275 19.2104 25.1625 19.1354C25.125 19.1104 24.5437 19.0854 23.8687 19.0854C22.6812 19.0854 22.6437 19.0917 22.5125 19.2229ZM24.5625 20.3792C24.6937 21.0354 24.7 21.0479 25.3125 21.3042C25.9625 21.5792 26.1 21.5729 26.5312 21.2792L26.9062 21.0292L27.3375 21.4604L27.775 21.8917L27.5312 22.2792C27.2687 22.7104 27.2437 22.8979 27.425 23.2542C27.4937 23.3854 27.5812 23.5917 27.6187 23.7167C27.725 24.0417 27.8437 24.1229 28.3625 24.2167L28.8187 24.2917L28.8 24.9229L28.7812 25.5479L28.3812 25.6292C27.8937 25.7292 27.7 25.8417 27.65 26.0729C27.625 26.1667 27.5437 26.3729 27.4625 26.5354C27.25 26.9604 27.2687 27.1729 27.5562 27.5854L27.8062 27.9417L27.3875 28.3542C27.1562 28.5854 26.9375 28.7729 26.9062 28.7729C26.8687 28.7729 26.6937 28.6729 26.5062 28.5479C26.25 28.3729 26.1312 28.3292 25.975 28.3542C25.7 28.3979 24.8562 28.7604 24.7687 28.8729C24.7312 28.9292 24.6625 29.1667 24.6187 29.4042L24.5437 29.8417L23.9187 29.8229L23.2937 29.8042L23.1875 29.3479C23.125 29.0979 23.0562 28.8667 23.025 28.8417C22.925 28.7479 21.9062 28.3354 21.7812 28.3354C21.7125 28.3354 21.4875 28.4479 21.2875 28.5792L20.9125 28.8292L20.7562 28.7104C20.6687 28.6479 20.4625 28.4604 20.3 28.2917L20 27.9917L20.2562 27.6167C20.55 27.1792 20.55 27.0354 20.2812 26.3979C20.025 25.7854 20.0125 25.7792 19.3625 25.6479L19 25.5792V24.9604V24.3417L19.4625 24.2417C19.975 24.1292 20.0687 24.0542 20.1875 23.6792C20.2312 23.5417 20.3187 23.3229 20.3812 23.1979C20.5562 22.8604 20.5312 22.7104 20.2437 22.3104L19.9812 21.9479L20.425 21.5042L20.8687 21.0604L21.2125 21.2917C21.4062 21.4167 21.6375 21.5229 21.7312 21.5229C21.9062 21.5229 22.8437 21.1854 22.9812 21.0792C23.0562 21.0167 23.0687 20.9604 23.1875 20.3792L23.2562 20.0229H23.875H24.4937L24.5625 20.3792Z" fill="#111111"/>
<path d="M23.0999 22.5854C21.9312 23.0041 21.2874 24.0666 21.4437 25.3229C21.5374 26.0791 22.1312 26.8541 22.8624 27.1979C23.1374 27.3291 23.3374 27.3666 23.7624 27.3854C24.4249 27.4166 24.8437 27.3041 25.3124 26.9791C26.8687 25.8916 26.6687 23.4979 24.9499 22.6916C24.4062 22.4354 23.6437 22.3979 23.0999 22.5854ZM24.3062 23.4979C25.1749 23.7541 25.6312 24.7166 25.2687 25.5291C24.7749 26.6416 23.3249 26.7666 22.6437 25.7541C22.1687 25.0479 22.3874 24.0916 23.1124 23.6666C23.5749 23.3916 23.8374 23.3541 24.3062 23.4979Z" fill="#111111"/>
</svg>
