<svg width="33" height="33" viewBox="0 0 33 33" fill="none" xmlns="http://www.w3.org/2000/svg">
<path d="M5.84401 4.45166C5.44179 4.62247 5.08365 4.96408 4.88529 5.3663C4.75857 5.62526 4.73653 5.74097 4.73653 6.13768C4.73653 6.52888 4.75857 6.6556 4.88529 6.92007C5.06161 7.29474 5.40322 7.63635 5.76136 7.80716L6.03134 7.92838V10.259C6.03134 12.6448 6.03685 12.7385 6.24623 12.8983C6.30683 12.9478 6.67599 12.9644 7.52451 12.9699H8.72015L8.75872 13.339C8.79728 13.7192 9.02319 15.2179 9.09482 15.543L9.13338 15.7248H7.56308H5.99277L5.89911 15.4824C5.77238 15.1518 5.44179 14.7881 5.08916 14.5953C4.81367 14.441 4.75306 14.43 4.21309 14.43C3.56844 14.43 3.35907 14.5016 2.95134 14.8708C2.60422 15.1848 2.43341 15.5705 2.40586 16.0885C2.36179 16.8874 2.67034 17.4604 3.33703 17.8185C3.66762 18.0004 3.72272 18.0114 4.21309 18.0114C4.67592 18.0114 4.76959 17.9949 5.02855 17.8571C5.39771 17.6643 5.69524 17.3557 5.86054 16.9976L5.99277 16.7166H7.6843H9.37031L9.49703 17.1408C9.62927 17.6037 10.1141 18.8709 10.2849 19.2125L10.3841 19.4164H8.45567C6.3454 19.4164 6.19664 19.4384 6.08644 19.7194C6.05338 19.8076 6.03134 20.8214 6.03134 22.298V24.7334L5.76136 24.8546C5.40322 25.0254 5.06161 25.367 4.88529 25.7417C4.75857 26.0062 4.73653 26.1329 4.73653 26.5241C4.73653 26.9208 4.75857 27.0365 4.8908 27.301C5.08916 27.7142 5.48036 28.0724 5.89911 28.2322C6.16358 28.3313 6.30132 28.3479 6.64293 28.3313C7.38125 28.2873 7.9102 27.9291 8.22426 27.2459C8.42812 26.8106 8.42812 26.188 8.22426 25.7527C8.05345 25.3781 7.70634 25.0254 7.3482 24.8656L7.07821 24.7389V22.6011V20.4633H9.02319L10.9627 20.4688L11.1555 20.7553C11.8718 21.8187 13.0509 22.9207 14.2135 23.6149C14.9573 24.0612 16.2631 24.6508 16.5056 24.6508C16.6653 24.6508 17.4863 24.3036 18.0924 23.9841C19.536 23.2127 20.6545 22.265 21.6297 20.9702L22.0154 20.4633H24.0265H26.0321V22.6011V24.7444L25.8007 24.8491C25.4921 24.9869 25.0899 25.3891 24.9301 25.7252C24.8144 25.9566 24.7924 26.0778 24.7924 26.5241C24.7924 26.9649 24.8144 27.0916 24.9246 27.3175C25.0954 27.6646 25.3984 27.9677 25.7676 28.1605C26.0266 28.2983 26.1202 28.3148 26.5831 28.3148C27.0294 28.3148 27.1506 28.2928 27.382 28.1826C27.7291 28.0062 28.0652 27.6701 28.2415 27.323C28.4289 26.9373 28.4344 26.1329 28.2525 25.7362C28.0983 25.4001 27.6465 24.9648 27.3269 24.8436L27.0789 24.7444V22.2485V19.7525L26.9467 19.5982L26.8145 19.444L24.7152 19.4274C23.5582 19.4219 22.616 19.4054 22.616 19.3944C22.616 19.3889 22.7152 19.1464 22.8419 18.8599C22.9686 18.5734 23.189 17.9838 23.3378 17.5431L23.6077 16.7441L25.3048 16.7276L27.0018 16.7166L27.134 16.9976C27.3049 17.3557 27.6024 17.6643 27.9715 17.8571C28.2305 17.9949 28.3242 18.0114 28.787 18.0114C29.2774 18.0114 29.3325 18.0004 29.6631 17.8185C30.3298 17.4604 30.6383 16.8874 30.5942 16.0885C30.5667 15.5705 30.3959 15.1848 30.0488 14.8708C29.641 14.5016 29.4317 14.43 28.787 14.43C28.247 14.43 28.1864 14.441 27.9109 14.5953C27.5583 14.7881 27.2277 15.1518 27.101 15.4824L27.0073 15.7248H25.415C23.9218 15.7248 23.8226 15.7193 23.8502 15.6256C23.9218 15.3942 24.2634 13.2454 24.2689 13.0085C24.2689 12.9864 24.842 12.9699 25.5362 12.9699H26.809L26.9412 12.8321L27.0789 12.6999V10.3086V7.91736L27.3324 7.81818C27.7016 7.68043 28.1368 7.22863 28.2801 6.83743C28.5391 6.1487 28.3958 5.37181 27.9164 4.88143C27.5087 4.46819 27.2112 4.34698 26.5831 4.34698C26.1202 4.34698 26.0266 4.3635 25.7676 4.50125C25.3984 4.6941 25.0954 4.99714 24.9246 5.34426C24.8144 5.57016 24.7924 5.69689 24.7924 6.13768C24.7924 6.58397 24.8144 6.70519 24.9301 6.9366C25.0899 7.27271 25.4921 7.67492 25.8007 7.81267L26.0321 7.91736V9.95049V11.9781H25.2001H24.3626L24.3957 11.6585C24.5114 10.5456 24.5554 9.59235 24.4948 9.46562C24.3901 9.2287 24.1477 9.16809 23.6353 9.25625C22.9135 9.37746 22.0319 9.41052 21.4975 9.3389C20.0153 9.14054 18.5607 8.3912 17.2769 7.16251C16.4725 6.38562 16.467 6.38562 15.657 7.17353C14.9463 7.85675 14.4173 8.24795 13.7286 8.59507C12.4338 9.25074 10.9792 9.47113 9.42541 9.25625C8.84136 9.1736 8.76973 9.17911 8.5824 9.34992C8.47771 9.44358 8.45567 9.52072 8.45567 9.77417C8.45567 10.1048 8.54934 11.4326 8.59342 11.7687L8.62097 11.9781H7.84959H7.07821V9.95049V7.92838L7.38125 7.76859C8.46669 7.20659 8.70913 5.79606 7.87714 4.88143C7.56859 4.53431 7.15535 4.358 6.61539 4.33596C6.23521 4.31943 6.1195 4.33596 5.84401 4.45166ZM6.96802 5.47098C7.04515 5.52608 7.16086 5.65281 7.23249 5.75199C7.68981 6.42419 6.74211 7.30025 6.08644 6.80988C5.88258 6.6556 5.73932 6.38011 5.73932 6.13768C5.73932 5.52057 6.47764 5.11835 6.96802 5.47098ZM27.0239 5.47098C27.2387 5.62526 27.4095 5.91177 27.4095 6.12666C27.4095 6.57846 26.9247 7.01374 26.4949 6.94762C26.0982 6.88151 25.7952 6.52888 25.7952 6.13217C25.7952 5.52057 26.539 5.12386 27.0239 5.47098ZM17.1116 8.3912C17.9381 9.09646 18.9574 9.66398 19.9712 9.99457C20.93 10.3086 21.244 10.3527 22.4341 10.3527H23.492L23.4645 10.5731C23.4535 10.6943 23.4039 11.2122 23.3543 11.7302C22.919 16.5127 21.9713 19.2346 20.0539 21.2236C19.4148 21.8903 18.6654 22.4744 17.8995 22.9041C17.2769 23.2513 16.6102 23.5488 16.4615 23.5488C16.2797 23.5488 14.7204 22.7278 14.219 22.3697C11.6624 20.5294 10.3731 17.8626 9.78355 13.2178C9.68988 12.496 9.50254 10.5951 9.50254 10.3968C9.50254 10.3692 9.92129 10.3472 10.5108 10.3472C11.6404 10.3472 12.2685 10.259 13.139 9.98355C14.2631 9.62541 15.1887 9.08544 15.9931 8.31407L16.4725 7.85675L16.6158 7.97796C16.6929 8.03857 16.9188 8.22591 17.1116 8.3912ZM4.50512 15.4714C4.74755 15.5705 4.96243 15.835 5.00651 16.0829C5.03957 16.2372 5.01753 16.3474 4.91835 16.5403C4.68143 17.0141 4.14147 17.1629 3.74476 16.8543C3.53538 16.7 3.38662 16.4301 3.38662 16.2097C3.38662 15.9838 3.59599 15.6422 3.81087 15.5154C4.05331 15.3777 4.25166 15.3612 4.50512 15.4714ZM29.1782 15.5154C29.4537 15.6697 29.641 16.0278 29.5914 16.3199C29.5474 16.5954 29.4041 16.7772 29.1066 16.926C28.8862 17.0361 28.8256 17.0472 28.6327 16.9976C28.3297 16.9149 28.1479 16.7551 28.0432 16.4741C27.9275 16.1766 27.9936 15.8736 28.2195 15.6587C28.517 15.3722 28.8421 15.3226 29.1782 15.5154ZM6.88537 25.8078C7.43084 26.0723 7.50247 26.7445 7.02862 27.1467C6.46111 27.6206 5.56301 27.0475 5.76136 26.3368C5.86054 25.9731 6.18562 25.7031 6.52172 25.6976C6.59886 25.6976 6.75864 25.7472 6.88537 25.8078ZM26.9412 25.8078C27.1891 25.929 27.4095 26.2486 27.4095 26.4855C27.4095 26.8437 27.134 27.2073 26.7814 27.301C26.2249 27.4498 25.6629 26.8933 25.8172 26.3368C25.9164 25.9731 26.2415 25.7031 26.5776 25.6976C26.6547 25.6976 26.8145 25.7472 26.9412 25.8078Z" fill="#FFC400"/>
<path d="M16.0702 13.0855C15.5138 13.1957 15.0124 13.6089 14.7424 14.1764C14.6212 14.4409 14.5991 14.5566 14.5991 14.9809C14.6046 15.4051 14.6267 15.5208 14.7534 15.7908C14.9352 16.1655 15.4036 16.6118 15.7562 16.744L16.0041 16.8432V17.9396V19.0361L16.1474 19.1683C16.3513 19.3557 16.6763 19.3557 16.8582 19.1683C16.9959 19.0361 16.9959 19.0306 16.9959 17.9396V16.8487L17.2659 16.722C17.8609 16.452 18.2577 15.9451 18.3789 15.2729C18.5552 14.3087 17.9381 13.361 16.9684 13.1075C16.6157 13.0193 16.4339 13.0138 16.0702 13.0855ZM16.9794 14.215C17.062 14.2756 17.1777 14.3913 17.2328 14.4684C17.3816 14.6668 17.4202 15.1076 17.31 15.317C17.1171 15.6806 16.6763 15.9341 16.3568 15.8569C15.5193 15.6586 15.3485 14.6778 16.0592 14.1929C16.219 14.0827 16.3017 14.0662 16.5441 14.0827C16.7149 14.0993 16.8967 14.1544 16.9794 14.215Z" fill="#FFC400"/>
</svg>
