<svg width="33" height="33" viewBox="0 0 33 33" fill="none" xmlns="http://www.w3.org/2000/svg">
<g clip-path="url(#clip0_4_336)">
<path d="M2.56872 1.77548C1.87497 2.02548 1.29372 2.55048 0.924965 3.25048C0.468715 4.11298 0.499965 3.40048 0.499965 13.8692C0.499965 24.338 0.468715 23.6255 0.924965 24.488C1.29997 25.2005 1.88747 25.7192 2.61247 25.9692C2.92497 26.0755 3.16247 26.088 5.19372 26.088H7.43122L7.59372 25.9442C7.71872 25.8442 7.76872 25.7255 7.79372 25.5192C7.82497 25.263 7.80622 25.2067 7.63747 25.0192L7.44997 24.8067L5.23747 24.7755C3.07497 24.7442 3.02497 24.7442 2.79997 24.6005C2.48122 24.4067 2.19997 24.063 2.00622 23.6505L1.84372 23.3067L1.82497 17.288L1.81247 11.2755H15.375H28.9375V14.4317V17.588H28.6562C28.3187 17.588 28.0437 17.6942 27.7687 17.9255L27.5687 18.0942L27.0187 17.8755L26.4687 17.6567L26.4312 17.3505C26.375 16.9317 26.2187 16.6255 25.925 16.3755C25.5687 16.0692 25.275 16.0067 24.275 16.038C23.4562 16.0567 23.3875 16.0692 23.1062 16.2317C22.7187 16.463 22.4375 16.9317 22.4375 17.3567C22.4375 17.6192 22.4187 17.663 22.2687 17.7255C22.1687 17.763 21.9187 17.8692 21.7062 17.9692C21.3312 18.138 21.3187 18.138 21.2125 18.0192C20.875 17.6442 20.0687 17.4817 19.575 17.6817C19.3 17.8005 18.225 18.838 18.0625 19.1505C17.8 19.6692 17.8625 20.2692 18.2312 20.7567L18.4437 21.038L18.225 21.5442L18.0062 22.0567L17.7 22.0942C17.2875 22.1505 16.9812 22.3005 16.725 22.588C16.4375 22.9067 16.375 23.163 16.375 24.038V24.7755H14.5C12.425 24.7755 12.3437 24.788 12.15 25.1567C12.0312 25.388 12.075 25.6942 12.2437 25.913L12.3625 26.0567L15.1875 26.088L18.0062 26.1192L18.225 26.663L18.45 27.213L18.275 27.413C18.025 27.713 17.9375 27.9755 17.9375 28.4005C17.9375 28.9255 18.0625 29.1317 18.825 29.8755C19.4187 30.4567 19.5 30.5192 19.8187 30.588C20.2812 30.688 20.7062 30.5942 21.0937 30.3005C21.3687 30.088 21.375 30.0817 21.575 30.188C21.6875 30.2442 21.9187 30.338 22.0875 30.4005L22.4062 30.5067L22.4437 30.8567C22.4937 31.3005 22.7375 31.7255 23.075 31.9505C23.325 32.113 23.3687 32.1192 24.3312 32.138C25.4875 32.163 25.7375 32.1005 26.0687 31.7317C26.325 31.438 26.4375 31.1567 26.4375 30.8255V30.5567L27.0062 30.313L27.575 30.0755L27.7375 30.2317C28.0437 30.513 28.3125 30.613 28.7562 30.613C29.0812 30.613 29.2187 30.5817 29.4437 30.4505C29.7687 30.2567 30.6875 29.3317 30.8312 29.0505C31.0875 28.5505 31.0125 27.8942 30.6562 27.4755L30.4437 27.2317L30.675 26.6567L30.9 26.088H31.1875C31.7375 26.0817 32.2875 25.6817 32.4375 25.1692C32.4812 25.0192 32.5 24.5567 32.4875 23.9567C32.4687 22.9942 32.4687 22.9817 32.2875 22.7192C32.05 22.3817 31.6562 22.1505 31.2312 22.1067L30.9 22.0755L30.675 21.5442L30.45 21.013L30.6625 20.738C30.9187 20.4005 31.025 20.0317 30.9812 19.638C30.9375 19.2755 30.8375 19.0755 30.5062 18.7005L30.25 18.413V11.5442C30.25 5.73173 30.2312 4.61298 30.1562 4.24423C29.9375 3.20673 29.3 2.33798 28.45 1.91923L27.975 1.68173L15.4437 1.66923C3.13121 1.65673 2.89997 1.65673 2.56872 1.77548ZM27.9187 3.15048C28.2937 3.36298 28.4875 3.59423 28.7312 4.11923L28.9062 4.49423L28.925 7.22548L28.9437 9.96298H15.375H1.80622L1.82497 7.19423L1.84372 4.43173L2.02497 4.04423C2.21872 3.62548 2.61247 3.20048 2.95622 3.05673C3.12497 2.98173 5.08746 2.96923 15.375 2.96298H27.5937L27.9187 3.15048ZM25.125 17.9005C25.1687 18.6755 25.1687 18.6755 26.0937 18.963C26.3375 19.038 26.7375 19.213 26.9875 19.3442C27.6625 19.7067 27.8687 19.688 28.3687 19.2317L28.7562 18.8817L29.225 19.3442L29.6875 19.8005L29.3812 20.1192C28.8375 20.6755 28.825 20.8067 29.2125 21.5755C29.3625 21.8817 29.55 22.338 29.625 22.5942C29.8312 23.2692 29.9375 23.363 30.6125 23.4005L31.1562 23.4317L31.175 24.1005L31.1937 24.7755H30.7062C29.95 24.7755 29.85 24.8692 29.5875 25.738C29.525 25.9442 29.3562 26.3442 29.2062 26.6317C28.825 27.3692 28.8375 27.4942 29.3187 28.0005L29.7062 28.3942L29.2812 28.838C29.0437 29.0755 28.8125 29.2755 28.7625 29.2755C28.7125 29.2755 28.5062 29.1192 28.3062 28.9317C27.8562 28.5067 27.6687 28.4817 27.0937 28.8005C26.8875 28.9192 26.4187 29.1192 26.0625 29.238C25.2 29.5317 25.1625 29.5755 25.1312 30.2817L25.1125 30.8442L24.4437 30.8255L23.7812 30.8067L23.75 30.263C23.7125 29.588 23.6187 29.4817 22.95 29.2817C22.7 29.2067 22.25 29.0192 21.9562 28.8692C21.1875 28.4692 21.0375 28.4817 20.5375 28.963L20.15 29.3317L19.7 28.8817C19.45 28.6317 19.25 28.4005 19.25 28.3692C19.25 28.338 19.4062 28.1505 19.6 27.9567C20.0562 27.5005 20.0687 27.3192 19.7 26.6505C19.5625 26.3942 19.375 25.938 19.2812 25.638C19.05 24.9005 18.9562 24.8192 18.2625 24.7755L17.7187 24.7442V24.088V23.4317L18.2562 23.413C18.9437 23.388 19.0562 23.3005 19.25 22.6442C19.325 22.388 19.5125 21.9317 19.6625 21.6317C20.0437 20.863 20.0375 20.7067 19.5937 20.2255C19.4062 20.0192 19.25 19.8255 19.25 19.7942C19.25 19.763 19.4437 19.5442 19.6812 19.313L20.1187 18.8817L20.4937 19.2317C21.0312 19.7255 21.1375 19.738 21.9125 19.3505C22.25 19.1755 22.7312 18.9755 22.975 18.9067C23.6 18.7255 23.7125 18.588 23.7375 17.9755C23.75 17.713 23.7687 17.4567 23.7812 17.413C23.8062 17.3567 23.975 17.338 24.45 17.3505L25.0937 17.3692L25.125 17.9005Z" fill="#111111"/>
<path d="M5.55618 4.48164C4.88118 4.76914 4.45618 5.25664 4.27493 5.95664C4.03118 6.93164 4.49993 7.95664 5.40618 8.40664C5.67493 8.53789 5.80618 8.55664 6.34368 8.55664C6.86868 8.55664 7.01868 8.53164 7.25618 8.41289C7.71868 8.18789 8.03743 7.86914 8.26243 7.41289C8.44993 7.03789 8.46868 6.94414 8.46868 6.46289C8.46243 6.05039 8.43118 5.86289 8.32493 5.62539C8.11243 5.15664 7.79993 4.81914 7.36243 4.58789C7.01868 4.40039 6.89993 4.37539 6.43743 4.35664C5.98743 4.33789 5.84993 4.35664 5.55618 4.48164ZM6.75618 5.79414C6.87493 5.86914 7.01868 6.04414 7.08743 6.17539C7.23118 6.47539 7.15618 6.78164 6.87493 7.05664C6.70618 7.21914 6.63118 7.24414 6.34368 7.24414C6.05618 7.24414 5.98118 7.21914 5.81868 7.06289C5.58743 6.83789 5.48743 6.53164 5.56243 6.26914C5.63118 6.03164 5.72493 5.91289 5.96868 5.76289C6.21868 5.61289 6.49993 5.61914 6.75618 5.79414Z" fill="#111111"/>
<path d="M11.125 4.44425C10.5625 4.638 10.1812 4.988 9.86875 5.588C9.74375 5.8255 9.725 5.963 9.71875 6.463C9.71875 7.18175 9.85 7.50675 10.3437 8.0005C10.7937 8.4505 11.2312 8.60675 11.9375 8.5755C12.5625 8.54425 12.9437 8.38175 13.3625 7.95675C14.6812 6.61925 13.7062 4.3255 11.825 4.338C11.5937 4.34425 11.2812 4.388 11.125 4.44425ZM12.1937 5.74425C12.6 5.95675 12.7625 6.588 12.4937 6.9255C12.1 7.4255 11.3625 7.363 11.1 6.813C10.975 6.5505 10.975 6.38175 11.0875 6.163C11.325 5.70675 11.7812 5.53175 12.1937 5.74425Z" fill="#111111"/>
<path d="M18.5812 4.42556C17.9875 4.61306 17.4687 5.10681 17.2437 5.70681C17.0687 6.18181 17.0937 6.98181 17.3062 7.40056C17.5 7.78181 17.9 8.18806 18.2812 8.38806L18.5937 8.55681L21.9062 8.57556C25.5937 8.59431 25.5562 8.60056 26.1375 8.17556C26.7375 7.73181 27.0875 6.86306 26.95 6.13806C26.8125 5.40056 26.3937 4.83806 25.75 4.53181L25.4062 4.36931L22.125 4.35681C19.5562 4.35056 18.7875 4.36306 18.5812 4.42556ZM25.1875 5.74431C25.7875 6.05056 25.7875 6.87556 25.1875 7.18181C25.0375 7.26306 24.5375 7.27556 22.0312 7.27556C18.75 7.27556 18.8062 7.28181 18.5625 6.88181C18.3187 6.48181 18.4812 5.91931 18.8937 5.74431C19.2 5.60681 24.925 5.60681 25.1875 5.74431Z" fill="#111111"/>
<path d="M23.625 20.3068C22.9375 20.463 22.225 20.8568 21.7188 21.3693C20.0938 22.988 20.2125 25.6193 21.9813 27.0943C22.375 27.4255 23.1813 27.813 23.675 27.9068C24.2063 28.0068 25.175 27.9505 25.6938 27.7818C26.7688 27.4443 27.7188 26.5005 28.1063 25.4005C28.3188 24.7818 28.375 23.8068 28.225 23.213C27.8938 21.9005 26.9063 20.8255 25.6563 20.4255C25.025 20.2255 24.2 20.1755 23.625 20.3068ZM24.8813 21.588C25.6875 21.738 26.3625 22.2568 26.7313 23.013C26.9563 23.463 26.9688 23.5193 26.9688 24.0818C26.9625 24.9255 26.8125 25.288 26.225 25.8755C25.6375 26.463 25.275 26.613 24.4375 26.6193C23.9 26.6193 23.8063 26.6005 23.425 26.4193C22.3563 25.913 21.7375 24.7943 21.9313 23.7255C22.1313 22.6568 22.8625 21.8755 23.9063 21.613C24.3063 21.513 24.4688 21.513 24.8813 21.588Z" fill="#111111"/>
<path d="M10.2187 14.9192C10.0687 15.0442 9.9875 15.3255 9.40625 17.7755C9.04375 19.2692 8.75 20.588 8.75 20.7005C8.75 21.3192 9.775 21.513 10 20.938C10.0312 20.8567 10.3375 19.6005 10.6875 18.1442C11.3687 15.3005 11.3812 15.1692 11.0937 14.913C10.8687 14.7255 10.4437 14.7255 10.2187 14.9192Z" fill="#111111"/>
<path d="M6.275 15.2693C6.1 15.3443 4.4125 17.1881 4.18125 17.5568C4.0125 17.8318 4.01875 18.3318 4.2 18.5631C4.5625 19.0256 6.025 20.6318 6.175 20.7256C6.45 20.9068 6.73125 20.8693 6.975 20.6256C7.20625 20.3943 7.25 20.1381 7.1125 19.8818C7.075 19.8068 6.70625 19.3756 6.3 18.9193C5.89375 18.4693 5.5625 18.0693 5.5625 18.0381C5.5625 18.0068 5.8875 17.6193 6.2875 17.1756C7.10625 16.2568 7.225 16.0693 7.1625 15.7631C7.09375 15.3756 6.63125 15.1193 6.275 15.2693Z" fill="#111111"/>
<path d="M13.275 15.2694C13.05 15.3694 12.875 15.6444 12.875 15.9069C12.875 16.1631 12.8438 16.1256 14.1438 17.5819C14.3375 17.8069 14.5 18.0131 14.5 18.0381C14.5 18.0631 14.1688 18.4569 13.7625 18.9131C13.35 19.3694 12.9875 19.8069 12.95 19.8819C12.65 20.4381 13.3063 21.0694 13.85 20.7569C14.0063 20.6694 15.7188 18.7631 15.8813 18.4944C16.0188 18.2819 16.0375 17.8131 15.9188 17.6131C15.8375 17.4631 14.2375 15.6506 13.9813 15.4131C13.8125 15.2569 13.475 15.1881 13.275 15.2694Z" fill="#111111"/>
<path d="M9.6625 24.8691C9.4 25.0066 9.31875 25.1504 9.3125 25.4504C9.3125 25.8379 9.5625 26.0879 9.9625 26.0879C10.35 26.0879 10.5625 25.9004 10.6063 25.5191C10.6375 25.2691 10.6187 25.2066 10.4625 25.0316C10.2438 24.7879 9.925 24.7254 9.6625 24.8691Z" fill="#111111"/>
</g>
<defs>
<clipPath id="clip0_4_336">
<rect width="32" height="32" fill="white" transform="translate(0.5 0.900391)"/>
</clipPath>
</defs>
</svg>
