<svg width="33" height="33" viewBox="0 0 33 33" fill="none" xmlns="http://www.w3.org/2000/svg">
<g clip-path="url(#clip0_5_162)">
<path d="M13.5625 0.19663C13.1125 0.334131 12.6063 0.69663 12.35 1.06538C12.1438 1.37163 12.025 1.75288 11.6813 3.22788L11.4188 4.37163L11.0063 4.57788C10.5 4.82163 9.50627 5.40288 9.12502 5.67163L8.84377 5.87163L7.68752 5.49663C6.66877 5.17163 6.45627 5.12163 5.89377 5.09663C4.78752 5.04038 4.28127 5.30913 3.66252 6.29663C3.03752 7.28413 1.83127 9.39663 1.51252 10.0591C1.16877 10.7779 1.10627 11.2591 1.28127 11.8591C1.43752 12.4091 1.59377 12.6029 2.71252 13.6716L3.75002 14.6654V16.1404V17.6154L2.68752 18.6279C1.43127 19.8341 1.25002 20.1216 1.20002 20.9466C1.15627 21.6654 1.28752 21.9529 2.85627 24.6529C3.94377 26.5279 4.23752 26.8779 4.95002 27.1154C5.18752 27.1904 5.40627 27.2091 5.89377 27.1841C6.45627 27.1591 6.67502 27.1091 7.68752 26.7841L8.84377 26.4154L9.47502 26.8279C9.82502 27.0529 10.4063 27.3904 10.7688 27.5779L11.4188 27.9154L11.6188 28.7966C11.725 29.2779 11.9063 29.9779 12.0125 30.3529C12.1938 30.9716 12.2375 31.0591 12.5438 31.3966C12.7313 31.5966 13.0313 31.8466 13.2188 31.9529L13.5438 32.1404H16.5063H19.4688L19.7813 31.9591C20.2438 31.6966 20.7063 31.1779 20.8688 30.7341C20.95 30.5279 21.1375 29.8091 21.2938 29.1404C21.45 28.4716 21.5813 27.9154 21.5875 27.9154C21.5875 27.9091 21.7938 27.8029 22.0438 27.6779C22.5875 27.4091 23.4875 26.8779 23.875 26.6091L24.1563 26.4091L25.3125 26.7841C26.35 27.1154 26.5375 27.1591 27.125 27.1841C27.6875 27.2091 27.8313 27.1966 28.1313 27.0841C28.5875 26.9091 28.95 26.5904 29.2813 26.0779C29.8375 25.2154 31.0938 23.0216 31.4313 22.3341C31.8375 21.5029 31.9063 21.0529 31.7188 20.4216C31.5625 19.8716 31.4063 19.6779 30.2875 18.6091L29.25 17.6154V16.1404V14.6654L30.3125 13.6529C31.2125 12.7841 31.4 12.5779 31.575 12.2154C31.7625 11.8341 31.7813 11.7529 31.7813 11.2029V10.6091L31.4313 9.92163C31.0563 9.19038 29.7438 6.91538 29.2438 6.14038C28.7188 5.32163 28.15 5.04663 27.1063 5.09663C26.55 5.12163 26.325 5.17163 25.3125 5.49663L24.1563 5.86538L23.525 5.45288C23.175 5.22788 22.5938 4.89038 22.2313 4.70288L21.5813 4.36538L21.3813 3.48413C21.275 3.00288 21.0938 2.30288 20.9875 1.92788C20.8063 1.30913 20.7625 1.22163 20.4563 0.88413C20.2688 0.68413 19.9688 0.43413 19.7813 0.327881L19.4563 0.140381L16.5875 0.146631C15.0063 0.146631 13.65 0.171631 13.5625 0.19663ZM18.7375 2.24038C18.9 2.28413 18.9375 2.40913 19.3375 4.10913C19.4875 4.75913 19.6688 5.43413 19.7313 5.60913L19.8438 5.92163L20.9125 6.45288C21.5188 6.75288 22.325 7.22163 22.7813 7.54038L23.5875 8.09038L24 8.05913C24.2313 8.04038 24.85 7.89038 25.4375 7.70288C26.0063 7.52788 26.6563 7.32788 26.8875 7.26538L27.3125 7.14663L27.4625 7.34663C27.8 7.80288 29.6875 11.0904 29.6875 11.2216C29.6875 11.2779 29.1688 11.8029 28.5313 12.3904C27.8813 12.9966 27.3 13.5841 27.2125 13.7404L27.0563 14.0091L27.1125 15.0779C27.1438 15.7091 27.1438 16.5716 27.1125 17.2029C27.0625 18.1466 27.0688 18.2841 27.1625 18.4841C27.225 18.6216 27.7563 19.1716 28.5125 19.8716L29.7563 21.0279L29.5188 21.4466C28.9375 22.4904 27.6063 24.7466 27.4688 24.9279C27.2875 25.1654 27.4313 25.1841 25.8438 24.7029C23.625 24.0341 23.7375 24.0341 22.7875 24.7279C22.1125 25.2154 22.05 25.2591 20.9063 25.8279L19.8438 26.3591L19.7125 26.7341C19.6375 26.9466 19.4563 27.6216 19.3188 28.2341C18.9125 29.9904 18.9063 30.0029 18.6688 30.0466C18.5625 30.0654 17.5063 30.0779 16.325 30.0654C14.7125 30.0529 14.1688 30.0279 14.1375 29.9716C14.1063 29.9279 13.9125 29.1591 13.6938 28.2654C13.375 26.9529 13.2688 26.5966 13.1375 26.4466C13.0375 26.3216 12.6813 26.1091 12.1313 25.8529C11.6688 25.6279 10.9625 25.2341 10.575 24.9654C9.49377 24.2341 9.43752 24.2029 9.11252 24.2029C8.92502 24.2029 8.32502 24.3529 7.48752 24.6029C5.50627 25.1966 5.71252 25.1654 5.53752 24.9341C5.38752 24.7279 4.70627 23.5779 3.81877 22.0279C3.48127 21.4341 3.31877 21.0966 3.34377 21.0154C3.36252 20.9529 3.86877 20.4529 4.46877 19.8966C5.06252 19.3466 5.63127 18.7904 5.72502 18.6654L5.90002 18.4404V16.1404V13.8404L5.73127 13.6216C5.63752 13.4966 5.07502 12.9466 4.47502 12.3904C3.87502 11.8404 3.36252 11.3279 3.34377 11.2654C3.31877 11.1841 3.57502 10.6779 4.19377 9.59663C5.43752 7.43413 5.58752 7.20288 5.77502 7.20288C5.86252 7.20288 6.40627 7.34663 6.98127 7.52163C8.56877 8.00913 8.85002 8.07788 9.13752 8.07788C9.43752 8.07788 9.51252 8.03413 10.575 7.31538C10.9625 7.04663 11.6438 6.66538 12.075 6.45288C12.5125 6.24663 12.9563 6.00288 13.0563 5.91538C13.2875 5.72163 13.3438 5.55288 13.75 3.74663C13.9188 2.99663 14.0875 2.34038 14.1313 2.29038C14.1875 2.21538 14.5813 2.20288 16.4 2.20288C17.6063 2.20288 18.6563 2.22163 18.7375 2.24038Z" fill="#111111"/>
<path d="M16.9314 10.9153C16.8064 10.9965 16.6564 11.1653 16.6001 11.284C16.4876 11.534 16.1501 12.8965 15.4376 16.0153C14.4064 20.5528 14.3814 20.6903 14.6501 21.084C15.0314 21.6403 15.9814 21.6653 16.3064 21.134C16.5626 20.709 18.5001 12.409 18.5001 11.7278C18.5001 11.1653 18.1564 10.8278 17.5376 10.784C17.2064 10.759 17.1251 10.7778 16.9314 10.9153Z" fill="#111111"/>
<path d="M20.5314 12.1528C20.2627 12.209 20.0377 12.3903 19.9002 12.6528C19.7689 12.909 19.7877 13.4278 19.9439 13.6778C20.0127 13.7903 20.6189 14.384 21.2877 14.9903C21.9564 15.5965 22.5002 16.1153 22.5002 16.1403C22.5002 16.159 21.9627 16.6715 21.3064 17.2715C20.6502 17.8653 20.0439 18.4528 19.9627 18.5778C19.6939 18.9653 19.7877 19.6153 20.1502 19.9528C20.2939 20.0778 20.3939 20.109 20.7689 20.1278C21.1877 20.1465 21.2377 20.1403 21.4689 19.9653C21.8814 19.6653 23.4752 18.2278 24.3627 17.359L25.1877 16.5465V16.1403V15.734L24.3627 14.9215C23.4064 13.984 21.7627 12.5028 21.4377 12.2965C21.1752 12.1278 20.8689 12.0778 20.5314 12.1528Z" fill="#111111"/>
<path d="M11.1564 12.6217C10.3127 13.3405 8.71267 14.8217 8.22517 15.3217L7.80017 15.7655L7.82517 16.1842L7.85017 16.5967L8.66267 17.3842C9.46267 18.1655 11.0814 19.6342 11.4814 19.9342C12.0127 20.3405 12.8064 20.1905 13.1002 19.628C13.2314 19.3717 13.2127 18.853 13.0564 18.603C12.9877 18.4905 12.3814 17.8967 11.7127 17.2905C11.0439 16.6842 10.5002 16.1655 10.5002 16.1467C10.5002 16.1217 11.0502 15.603 11.7189 14.9905C12.3877 14.378 12.9939 13.778 13.0689 13.6592C13.2564 13.353 13.2189 12.7155 13.0002 12.478C12.7564 12.2217 12.5377 12.1405 12.1127 12.1405H11.7127L11.1564 12.6217Z" fill="#111111"/>
</g>
<defs>
<clipPath id="clip0_5_162">
<rect width="32" height="32" fill="white" transform="translate(0.5 0.140381)"/>
</clipPath>
</defs>
</svg>
