<svg width="33" height="33" viewBox="0 0 33 33" fill="none" xmlns="http://www.w3.org/2000/svg">
<path d="M8.85 5.64565C7.5625 5.9894 6.45625 6.92066 5.90625 8.1144C5.48125 9.03316 5.5 8.6144 5.5 16.5207C5.5 24.4269 5.48125 24.0082 5.90625 24.9269C6.4125 26.0332 7.30625 26.8394 8.53125 27.3019L9.03125 27.4894L13.75 27.5082C16.3438 27.5144 18.5313 27.5082 18.6125 27.4894C18.7875 27.4457 18.9625 27.0707 18.9 26.8769C18.875 26.8019 18.7063 26.5707 18.525 26.3644C18.3375 26.1582 18.0875 25.8019 17.9688 25.5707C17.8438 25.3394 17.7125 25.1269 17.6688 25.1019C17.625 25.0769 15.8063 25.0394 13.625 25.0207C9.025 24.9769 9.3 25.0144 8.65 24.3707C7.98125 23.7019 8.03125 24.3582 8.03125 16.5207C8.03125 8.68316 7.98125 9.34566 8.65 8.67066C9.325 8.00191 8.6625 8.0519 16.5 8.0519C24.3375 8.0519 23.6812 8.00191 24.35 8.67066C24.9875 9.30816 24.9563 9.10191 25 13.2582C25.0375 17.3457 24.975 16.9832 25.6187 17.0519C25.8125 17.0707 26.1875 17.1582 26.4563 17.2394C27.0625 17.4332 27.1375 17.4332 27.3563 17.2457L27.5312 17.0957V13.2582C27.5312 8.95191 27.5375 9.02691 27.0625 8.0519C26.6125 7.12066 25.8938 6.40191 24.9688 5.95815C24 5.49566 24.475 5.52065 16.4625 5.52691C9.66875 5.52691 9.25625 5.53316 8.85 5.64565Z" fill="#111111"/>
<path d="M13.0812 11.208C12.9688 11.2518 12.8688 11.4955 12.5375 12.533C10.3625 19.3143 9.875 20.858 9.875 20.958C9.875 21.208 10.0375 21.2705 10.6813 21.2705C11.1187 21.2705 11.3188 21.2455 11.3687 21.1893C11.4062 21.1393 11.5438 20.7518 11.675 20.3268L11.9188 19.5518L13.925 19.533L15.925 19.5205L16.1875 20.3143C16.3375 20.758 16.4813 21.1518 16.5188 21.1893C16.5563 21.2455 16.7812 21.2705 17.225 21.2705C17.8 21.2705 17.875 21.258 17.9375 21.1518C17.9688 21.083 18 20.9768 18 20.9205C18 20.8205 15.15 11.8518 14.9875 11.4393C14.95 11.3393 14.85 11.233 14.7688 11.2018C14.575 11.133 13.2625 11.133 13.0812 11.208ZM14.7188 15.7143C15.1125 16.9393 15.4375 17.958 15.4375 17.983C15.4375 18.0018 14.7625 18.0205 13.9313 18.0205C12.75 18.0205 12.4313 18.0018 12.4562 17.9393C12.4688 17.9018 12.7812 16.9268 13.15 15.7768C13.8812 13.508 13.9437 13.333 13.975 13.4268C13.9875 13.458 14.3187 14.4893 14.7188 15.7143Z" fill="#111111"/>
<path d="M20.325 11.283C20.2188 11.3893 20.2188 21.0893 20.325 21.1955C20.425 21.2955 21.575 21.2955 21.675 21.1955C21.7813 21.0893 21.7813 11.3893 21.675 11.283C21.575 11.183 20.425 11.183 20.325 11.283Z" fill="#111111"/>
<path d="M25.3312 19.5956C25.2937 19.6393 25.0375 20.2643 24.75 20.9768C24.1125 22.5831 23.8437 22.9831 23.0625 23.4706C22.975 23.5206 22.3312 23.7956 21.625 24.0768C20.9187 24.3643 20.3062 24.6331 20.2562 24.6768C20.2062 24.7268 20.1875 24.8206 20.2062 24.9081C20.2437 25.0393 20.425 25.1268 21.4812 25.5456C22.9375 26.1206 23.1625 26.2456 23.6375 26.6893C24.0625 27.1018 24.2687 27.4831 24.875 29.0018C25.1187 29.6331 25.35 30.1456 25.375 30.1456C25.4062 30.1456 25.4687 30.1643 25.5187 30.1831C25.6812 30.2456 25.8 30.0393 26.2437 28.8893C26.8062 27.4643 26.9187 27.2456 27.3187 26.8081C27.75 26.3331 27.9812 26.2081 29.525 25.5831C30.6625 25.1268 30.8437 25.0331 30.8625 24.9081C30.875 24.8268 30.85 24.7268 30.8125 24.6768C30.7687 24.6268 30.225 24.3893 29.6062 24.1393C28.2187 23.5956 27.8187 23.3893 27.4375 23.0206C27.0062 22.6018 26.8687 22.3456 26.3062 20.9456C26.0312 20.2456 25.775 19.6393 25.7375 19.5956C25.7 19.5581 25.6062 19.5206 25.5312 19.5206C25.4562 19.5206 25.3625 19.5581 25.3312 19.5956Z" fill="#111111"/>
</svg>
