<svg width="33" height="33" viewBox="0 0 33 33" fill="none" xmlns="http://www.w3.org/2000/svg">
<g clip-path="url(#clip0_4_421)">
<path d="M2.04375 5.70669C1.5 5.83794 0.96875 6.25669 0.65625 6.80669L0.5 7.09419V15.2442V23.3942L0.65 23.6879C0.8375 24.0629 1.2125 24.4504 1.60625 24.6817L1.90625 24.8567L5.95625 24.8942C8.18125 24.9129 10.0188 24.9504 10.0437 24.9692C10.075 25.0067 9.61875 26.4004 9.39375 26.9317L9.3125 27.1379L8.6375 27.1442C7.7875 27.1442 7.4 27.2129 7.28125 27.3629C7.15 27.5379 7.16875 27.8692 7.31875 28.0817L7.44375 28.2629H12.9C18.325 28.2629 18.3563 28.2629 18.525 28.1317C18.6562 28.0317 18.6875 27.9504 18.6875 27.7379C18.6875 27.5942 18.65 27.4192 18.6 27.3567C18.5 27.2129 18.0688 27.1504 17.2063 27.1442C16.575 27.1379 16.575 27.1379 16.5125 26.9629C16.3188 26.4317 15.8125 25.0004 15.8125 24.9817C15.8125 24.9192 17.0063 24.8817 17.7812 24.9192C18.5375 24.9567 18.6875 24.9817 18.6875 25.0629C18.6875 25.2504 19.4188 26.0942 19.9563 26.5192C20.35 26.8317 20.5312 26.8317 21.2063 26.5067L21.7375 26.2567L21.975 26.3754C22.1125 26.4379 22.4188 26.5692 22.6625 26.6629L23.1125 26.8317L23.3125 27.4067C23.6125 28.2567 23.5688 28.2254 24.7313 28.2504C25.2688 28.2629 25.8062 28.2567 25.9188 28.2317C26.1562 28.1879 26.2688 28.0067 26.4937 27.3129C26.6438 26.8692 26.6875 26.8067 26.9375 26.7317C27.025 26.7067 27.3062 26.5879 27.5688 26.4692L28.0438 26.2504L28.55 26.5067C29.2375 26.8504 29.3938 26.8442 29.8563 26.4567C30.2313 26.1442 30.6 25.7629 30.8938 25.4004C31.1375 25.1004 31.1187 24.8442 30.8 24.2629L30.5438 23.7817L30.8062 23.1629C30.95 22.8254 31.0938 22.5004 31.1187 22.4504C31.1438 22.4004 31.35 22.2942 31.5688 22.2129C32.2563 21.9754 32.4375 21.8754 32.475 21.7317C32.4937 21.6567 32.5 21.0942 32.4875 20.4879C32.4625 19.1879 32.5187 19.2879 31.675 19.0254C31.1562 18.8692 31.1187 18.8504 31.0562 18.6379C31.0188 18.5192 30.8875 18.1879 30.7688 17.9129L30.5562 17.4004L30.8062 16.8942C31.1938 16.1317 31.1812 16.0567 30.5188 15.3692C29.5125 14.3442 29.375 14.2942 28.5688 14.6942L28.0813 14.9442L27.5562 14.7254C26.6438 14.3442 26.6438 14.3442 26.6 14.1692C26.5063 13.8004 26.2938 13.3129 26.1438 13.1379C26.0125 12.9817 25.9438 12.9504 25.7125 12.9504H25.4375V10.2067C25.4375 6.95669 25.4375 6.97544 24.8375 6.30044C24.625 6.06294 24.3875 5.85669 24.275 5.82544C24.1625 5.78794 23.7 5.73169 23.2437 5.70044C22.1688 5.62544 2.3625 5.63169 2.04375 5.70669ZM23.6812 6.84419C23.8 6.88794 23.9813 7.02544 24.0875 7.15669C24.275 7.38794 24.2812 7.42544 24.3188 8.21919C24.3438 8.67544 24.3687 9.90669 24.3687 10.9629L24.375 12.8754L24.1875 12.9129C24.0875 12.9317 23.9188 12.9692 23.8188 12.9879C23.625 13.0192 23.5125 13.2254 23.2812 13.9254C23.225 14.0942 23.1438 14.2629 23.1063 14.3004C23.0625 14.3379 22.7375 14.5004 22.3813 14.6567L21.7375 14.9442L21.2437 14.7004C20.5938 14.3692 20.3625 14.3692 19.9563 14.6942C19.6187 14.9692 19.0063 15.5879 18.85 15.8254C18.6812 16.0754 18.725 16.4067 19 16.9442L19.2437 17.4379L19.0312 17.9317C18.6063 18.8817 18.6562 18.8254 18.0438 19.0504C17.4 19.2879 17.25 19.4004 17.25 19.6504V19.8254H9.375H1.5L1.50625 15.7442C1.5125 13.5067 1.53125 10.7254 1.55625 9.56919L1.59375 7.46919L1.75625 7.21919C2.0875 6.72544 1.08125 6.76294 12.9062 6.76919C20.925 6.76919 23.5188 6.78794 23.6812 6.84419ZM25.4937 14.5192C25.7437 15.2192 25.8062 15.2942 26.2938 15.4504C26.525 15.5317 26.9875 15.7129 27.3188 15.8629C27.65 16.0129 27.9813 16.1379 28.0562 16.1379C28.1313 16.1379 28.4125 16.0254 28.6812 15.8942L29.1688 15.6442L29.5063 15.9879L29.8375 16.3254L29.6063 16.7942C29.4813 17.0567 29.375 17.3504 29.375 17.4504C29.375 17.5504 29.475 17.8442 29.5938 18.1067C29.7125 18.3629 29.9 18.8129 30.0063 19.1067C30.225 19.7004 30.2563 19.7317 31 19.9817C31.3375 20.0942 31.4062 20.1442 31.4 20.2504C31.4 20.3254 31.3938 20.5379 31.3875 20.7254L31.375 21.0567L30.8188 21.2567C30.2125 21.4754 30.225 21.4567 29.9688 22.2004C29.8875 22.4254 29.725 22.8254 29.6 23.0942C29.475 23.3567 29.375 23.6504 29.375 23.7442C29.375 23.8379 29.4813 24.1317 29.6063 24.4067L29.8375 24.8942L29.5125 25.2129L29.1938 25.5379L28.7063 25.3067C28.4312 25.1817 28.1313 25.0754 28.025 25.0754C27.9188 25.0754 27.6125 25.1817 27.3375 25.3129C27.0688 25.4442 26.6125 25.6317 26.3313 25.7317C25.8375 25.9004 25.8188 25.9129 25.7 26.1942C25.6313 26.3504 25.525 26.6442 25.4625 26.8442C25.35 27.2004 25.3438 27.2067 25.1688 27.1754C25.0688 27.1567 24.8625 27.1379 24.7188 27.1379C24.4625 27.1379 24.4438 27.1254 24.375 26.9004C24.3313 26.7754 24.2313 26.5129 24.1438 26.3192C23.975 25.9379 23.95 25.9192 23.2313 25.6567C22.9937 25.5754 22.6063 25.4067 22.3563 25.2879C22.1125 25.1692 21.8375 25.0754 21.7563 25.0754C21.6688 25.0754 21.3813 25.1817 21.1125 25.3067L20.6187 25.5379L20.2812 25.2004L19.9438 24.8692L20.1938 24.3817C20.325 24.1129 20.4375 23.8192 20.4375 23.7317C20.4375 23.6442 20.3313 23.3567 20.1938 23.0879C20.0625 22.8254 19.8875 22.4004 19.8062 22.1442C19.725 21.8942 19.6 21.6254 19.525 21.5442C19.45 21.4629 19.1875 21.3379 18.9312 21.2567C18.675 21.1754 18.45 21.1004 18.4312 21.0817C18.4062 21.0567 18.375 20.8379 18.3563 20.5942L18.3188 20.1379L18.7437 20.0129C19.425 19.8129 19.5625 19.6879 19.7875 19.0754C19.8875 18.7817 20.0813 18.3192 20.2063 18.0504C20.3313 17.7817 20.4375 17.5004 20.4375 17.4317C20.4375 17.3567 20.3313 17.0817 20.2063 16.8067L19.975 16.3192L20.3 16.0004L20.6187 15.6754L21.1063 15.9067C21.3813 16.0317 21.6625 16.1379 21.7375 16.1379C21.8188 16.1379 22.1812 16.0004 22.5562 15.8254C22.9312 15.6567 23.3625 15.4879 23.525 15.4442C23.9 15.3504 24.0875 15.1254 24.2563 14.5567C24.3313 14.3067 24.4062 14.0817 24.4188 14.0567C24.4375 14.0317 24.6438 14.0129 24.8875 14.0254L25.325 14.0442L25.4937 14.5192ZM17.25 21.2879C17.25 21.8067 17.325 21.8879 18.0625 22.1567L18.6562 22.3754L18.7688 22.6817C18.825 22.8442 18.95 23.1442 19.0438 23.3379C19.1375 23.5379 19.1938 23.7129 19.175 23.7379C19.15 23.7567 15.3875 23.7879 10.8 23.8067L2.46875 23.8379L2.18125 23.6754C1.6375 23.3629 1.58125 23.2254 1.525 21.8879L1.48125 20.8879H9.36875H17.25V21.2879ZM14.5938 24.9942C14.6188 25.0567 14.7875 25.5317 14.975 26.0567C15.1625 26.5817 15.3313 27.0567 15.3562 27.1129C15.3938 27.2129 15.2438 27.2192 13.0063 27.1817C11.6875 27.1629 10.6 27.1317 10.5813 27.1129C10.5625 27.1004 10.725 26.5879 10.9375 25.9879L11.3313 24.8879H12.9375C14.4125 24.8879 14.55 24.8942 14.5938 24.9942Z" fill="#111111"/>
<path d="M13.4438 9.1316C13.325 9.25035 13.25 9.53785 12.5 12.7316C11.8938 15.3191 11.5625 16.8254 11.5625 17.0254C11.5625 17.2879 11.6562 17.4254 11.8875 17.5066C12.0312 17.5566 12.1438 17.5566 12.2875 17.5129C12.5688 17.4191 12.5938 17.3379 13.4312 13.7004C14.4062 9.4691 14.425 9.3566 14.15 9.1441C13.9375 8.9816 13.6 8.97535 13.4438 9.1316Z" fill="#111111"/>
<path d="M9.53125 10.8005C8.025 11.638 6.1375 12.7255 5.95625 12.8693C5.78125 13.0005 5.75 13.0568 5.75 13.288C5.75 13.463 5.7875 13.588 5.8625 13.6505C6.1125 13.863 8.91875 15.4505 9.78125 15.8693C10.3 16.1193 10.6375 16.138 10.775 15.938C10.8937 15.7693 10.9062 15.388 10.8 15.2505C10.7562 15.1943 10.0187 14.7443 9.15625 14.2568C8.3 13.7693 7.58125 13.3568 7.5625 13.3443C7.5 13.288 7.8 13.1005 9.20625 12.3005C9.98125 11.8568 10.675 11.4443 10.7437 11.3755C10.9437 11.1943 10.925 10.7505 10.7125 10.5818C10.45 10.3755 10.2187 10.4193 9.53125 10.8005Z" fill="#111111"/>
<path d="M15.1562 10.6068C15.0437 10.7193 14.9999 10.8255 14.9999 11.0068C14.9999 11.3193 15.1062 11.4068 16.3624 12.113C16.8312 12.3755 17.4812 12.7505 17.8062 12.938C18.4937 13.338 18.5374 13.2505 17.4062 13.8693C16.2562 14.5068 15.2937 15.0755 15.1437 15.2193C14.9374 15.4005 14.9499 15.7818 15.1562 15.988C15.3624 16.1943 15.5249 16.163 16.3312 15.7568C16.8562 15.4943 19.4999 14.0193 19.9249 13.7568C20.1124 13.638 20.1937 13.3818 20.1187 13.113C20.0499 12.8693 20.0249 12.8505 17.8124 11.6255C15.4937 10.3318 15.4437 10.313 15.1562 10.6068Z" fill="#111111"/>
<path d="M24.2813 17.5129C22.3938 17.9004 21.325 19.8004 21.9438 21.6692C22.2 22.4442 22.8813 23.1567 23.6813 23.4879C24.225 23.7129 25.225 23.7692 25.7875 23.6067C26.4688 23.4129 27.1625 22.8879 27.5563 22.2692C28.1563 21.3317 28.1625 19.8817 27.5688 18.9567C27.3 18.5442 26.7188 18.0004 26.325 17.8004C25.7188 17.4942 24.925 17.3817 24.2813 17.5129ZM25.4375 18.6754C25.9063 18.8067 26.3375 19.1442 26.6188 19.6004C26.825 19.9379 26.8438 20.0192 26.8625 20.5192C26.8813 20.9567 26.8625 21.1129 26.7625 21.3442C26.6 21.7067 26.1875 22.1629 25.8188 22.3754C25.5563 22.5254 25.4688 22.5442 24.9063 22.5442C24.3313 22.5442 24.2563 22.5317 23.95 22.3629C23.5625 22.1442 23.3188 21.8817 23.0813 21.4317C22.9313 21.1567 22.9063 21.0317 22.9125 20.6067C22.9125 20.0254 23.0438 19.6754 23.4063 19.2692C23.9625 18.6567 24.6563 18.4567 25.4375 18.6754Z" fill="#111111"/>
</g>
<defs>
<clipPath id="clip0_4_421">
<rect width="32" height="32" fill="white" transform="translate(0.5 0.950439)"/>
</clipPath>
</defs>
</svg>
