<svg width="49" height="48" viewBox="0 0 49 48" fill="none" xmlns="http://www.w3.org/2000/svg">
<path d="M37.7688 6.1875C36.925 6.4125 35.7156 6.975 34.9281 7.5C34.6 7.725 33.25 8.98125 31.9281 10.2844L29.5188 12.675L28.3563 12.4219L27.1844 12.1688L27.3063 11.8219C27.4563 11.4 27.4656 11.2969 27.3344 10.8469C27.2125 10.4063 26.7438 9.85313 26.3406 9.69375C25.975 9.53438 25.3938 9.525 25.0375 9.65625C24.8969 9.7125 24.4375 10.0969 24.0156 10.5C23.5938 10.9125 23.1906 11.25 23.1063 11.25C22.9938 11.25 22.0188 11.0438 20.6125 10.7344L20.3969 10.6781L20.6313 10.3969C20.9406 10.0406 21.0063 9.77813 20.95 9.14063C20.8938 8.52188 20.5563 8.025 19.9938 7.77188C19.1125 7.36875 18.5406 7.60313 17.2844 8.87813L16.3656 9.80625L13.1594 9.10313C10.675 8.56875 9.86875 8.42813 9.5875 8.475C9.30625 8.53125 9.03438 8.72813 8.33125 9.40313C7.42188 10.2844 7.1875 10.65 7.1875 11.1563C7.1875 11.5219 7.39375 12.0188 7.64688 12.2531C7.75 12.3469 11.0875 14.2219 15.0531 16.4063C19.0281 18.6 22.2625 20.4188 22.2531 20.4563C22.2438 20.4938 20.6125 22.3031 18.6344 24.4688L15.0344 28.4063H14.6031C14.3688 28.4063 12.7 28.4906 10.8906 28.5938L7.60938 28.7719L6.93438 29.4656C6.26875 30.15 6.25 30.1781 6.25 30.6375C6.25 31.4438 6.24063 31.4438 10.2813 32.9813L13.8813 34.3594L15.2688 37.9688C16.8063 42 16.8063 42 17.6031 42C18.0531 42 18.0906 41.9813 18.775 41.3156L19.4875 40.6406L19.6656 37.4063C19.7594 35.625 19.8438 33.9563 19.8438 33.6938V33.2063L23.7812 29.6156C25.9469 27.6375 27.7563 26.0063 27.7938 25.9969C27.8313 25.9875 29.65 29.2219 31.8438 33.1969C34.0281 37.1719 35.9219 40.5188 36.0438 40.65C36.2688 40.875 36.7844 41.0625 37.1406 41.0625C37.5531 41.0531 38.1156 40.6781 38.8469 39.9094C40 38.7094 39.9813 38.9719 39.1469 35.1094L38.4438 31.8844L39.3719 30.9656C40.3188 30.0281 40.6469 29.5219 40.6562 29.0063C40.6562 28.3313 40.2344 27.6563 39.6531 27.4125C39.0531 27.1594 38.2 27.2719 37.7781 27.675L37.5719 27.8719L37.5156 27.6469C37.3188 26.8031 37 25.2563 37 25.1438C37 25.0594 37.3375 24.6563 37.75 24.2344C38.5469 23.4188 38.6875 23.1656 38.6875 22.5938C38.6875 21.9281 38.3219 21.3469 37.7031 21.0281C37.3844 20.8594 36.5594 20.8313 36.2781 20.9813C36.1 21.0844 36.0813 21.0375 35.8375 19.9031L35.575 18.7219L37.8156 16.4625C39.0531 15.225 40.2531 13.95 40.4875 13.6406C42.4375 11.0438 42.8125 8.4 41.4438 6.9375C40.825 6.27188 40.3094 6.05625 39.2969 6.02813C38.6969 6.00938 38.2563 6.05625 37.7688 6.1875Z" fill="#3F51B5"/>
</svg>
