<svg width="16" height="17" viewBox="0 0 16 17" fill="none" xmlns="http://www.w3.org/2000/svg">
<path d="M11.7522 0.0776367C14.0992 0.0777109 16.0021 1.98059 16.0022 4.32764V11.8276C16.0022 14.1748 14.0993 16.0776 11.7522 16.0776H4.2522C1.90504 16.0776 0.00219727 14.1748 0.00219727 11.8276V4.32764C0.00228631 1.98056 1.9051 0.0776515 4.2522 0.0776367H11.7522ZM4.2522 1.07764C2.45727 1.07765 1.00229 2.53272 1.0022 4.32764V11.8276C1.0022 13.6226 2.45721 15.0776 4.2522 15.0776H11.7522C13.5471 15.0776 15.0022 13.6226 15.0022 11.8276V4.32764C15.0021 2.53276 13.5471 1.07771 11.7522 1.07764H4.2522ZM6.42212 4.93896C7.07545 4.59996 7.82001 4.4756 8.5481 4.5835C9.2907 4.69368 9.97815 5.03998 10.509 5.5708C11.0399 6.1017 11.3861 6.78908 11.4963 7.53174C11.6043 8.25993 11.4799 9.00429 11.1409 9.65771C10.8018 10.3109 10.265 10.8405 9.60767 11.1714C8.95029 11.5021 8.20532 11.6173 7.47876 11.5005C6.75208 11.3835 6.08028 11.0405 5.55981 10.52C5.03937 9.99951 4.69629 9.3278 4.57935 8.60107C4.4625 7.87448 4.57765 7.12956 4.90845 6.47217C5.23931 5.81483 5.76899 5.27804 6.42212 4.93896ZM8.40161 5.57275C7.88154 5.49571 7.34973 5.58451 6.88306 5.82666C6.41647 6.06887 6.03738 6.4518 5.80103 6.92139C5.56471 7.39104 5.48215 7.92379 5.56567 8.44287C5.64924 8.96191 5.89514 9.44121 6.26685 9.81299C6.63856 10.1847 7.11799 10.4305 7.63696 10.5142C8.156 10.5977 8.68882 10.5151 9.15845 10.2788C9.62808 10.0424 10.011 9.66342 10.2532 9.19678C10.4954 8.73001 10.5842 8.19839 10.5071 7.67822C10.4283 7.14783 10.1812 6.657 9.802 6.27783C9.42284 5.89874 8.93195 5.6515 8.40161 5.57275Z" fill="#111111"/>
</svg>
