<svg width="18" height="17" viewBox="0 0 18 17" fill="none" xmlns="http://www.w3.org/2000/svg">
<path d="M4.20184 5.9126C4.49612 5.91285 4.73504 6.15146 4.73504 6.4458V15.8774C4.73504 16.1718 4.49612 16.4104 4.20184 16.4106H1.00164C0.707146 16.4106 0.468437 16.1719 0.468437 15.8774V6.4458C0.468437 6.15131 0.707146 5.9126 1.00164 5.9126H4.20184ZM12.1999 5.12549C13.6111 5.12558 14.9668 5.67642 15.9675 6.65967C16.9684 7.64325 17.5328 8.97945 17.5329 10.3745V15.8765C17.5329 16.1708 17.2939 16.4094 16.9997 16.4097H13.7995C13.505 16.4096 13.2663 16.1709 13.2663 15.8765V10.3745C13.2662 10.1022 13.1566 9.83856 12.9577 9.64307C12.7584 9.44728 12.4856 9.33554 12.1999 9.33545C11.9141 9.33545 11.6414 9.44737 11.4421 9.64307C11.2431 9.83857 11.1335 10.1022 11.1335 10.3745V15.8765C11.1335 16.1707 10.8945 16.4093 10.6003 16.4097H7.40008C7.10559 16.4097 6.86689 16.1709 6.86687 15.8765V10.3745C6.86693 8.97938 7.43125 7.64327 8.4323 6.65967C9.43308 5.67645 10.7886 5.12549 12.1999 5.12549ZM1.53484 15.3442H3.66766V6.979H1.53484V15.3442ZM12.1999 6.19189C11.0654 6.19189 9.97877 6.63503 9.17937 7.42041C8.38043 8.2055 7.93334 9.26841 7.93328 10.3745V15.3433H10.0661V10.3745C10.0661 9.8132 10.294 9.27632 10.695 8.88232C11.0957 8.48888 11.6374 8.26904 12.1999 8.26904C12.7624 8.26913 13.3041 8.48875 13.7048 8.88232C14.1058 9.27632 14.3326 9.8132 14.3327 10.3745V15.3433H16.4665V10.3745C16.4664 9.26834 16.0185 8.20551 15.2194 7.42041C14.4201 6.63511 13.3342 6.19198 12.1999 6.19189ZM2.60125 0.410645C3.77044 0.410645 4.73504 1.34464 4.73504 2.51611C4.73487 3.68744 3.77034 4.62061 2.60125 4.62061C1.43228 4.62047 0.468605 3.68736 0.468437 2.51611C0.468437 1.34473 1.43217 0.410781 2.60125 0.410645ZM2.60125 1.47705C2.0034 1.47719 1.53484 1.95133 1.53484 2.51611C1.53501 3.08077 2.00351 3.55406 2.60125 3.5542C3.19911 3.5542 3.66749 3.08085 3.66766 2.51611C3.66766 1.95124 3.19922 1.47705 2.60125 1.47705Z" fill="white"/>
</svg>
