<svg width="48" height="48" viewBox="0 0 48 48" fill="none" xmlns="http://www.w3.org/2000/svg">
<path d="M21.987 4.16722C21.8618 4.2976 21.8082 4.53975 21.7635 5.05199C21.701 5.93675 21.4507 6.46762 20.9591 6.72839C20.2888 7.09161 19.7436 6.9426 18.9303 6.18822C18.1974 5.51765 18.0633 5.57353 16.4992 7.24063C15.2836 8.52587 15.2121 8.66557 15.4803 9.19643C15.5518 9.33613 15.7127 9.55034 15.8467 9.68073C16.5617 10.3699 16.6064 11.2826 15.954 11.9904C15.6322 12.335 15.239 12.4747 14.5418 12.4747C14.0055 12.4747 13.7017 12.661 13.6033 13.0615C13.5765 13.1825 13.5676 14.058 13.5855 15.0173C13.6212 17.1594 13.6033 17.1314 14.7742 17.2245C15.5786 17.2897 15.8378 17.4108 16.1864 17.8858C16.4009 18.1931 16.4724 18.7892 16.3472 19.199C16.2936 19.3852 16.0612 19.7298 15.8378 19.9813C15.4177 20.4656 15.3015 20.7264 15.382 21.071C15.4177 21.1827 15.9987 21.8533 16.6779 22.5611C17.822 23.7439 17.9382 23.837 18.251 23.837C18.5191 23.837 18.6621 23.7625 19.0107 23.4179C19.4576 22.9802 19.9402 22.7194 20.2888 22.7194C20.6731 22.7287 21.2362 23.064 21.4775 23.4366C21.6563 23.7253 21.7188 23.9674 21.7635 24.5728C21.844 25.709 21.8171 25.6997 24.0426 25.6997C25.8123 25.6997 25.8213 25.6997 26.0358 25.4669C26.2145 25.2899 26.2592 25.1502 26.2592 24.7497C26.2592 23.7066 26.6525 23.0361 27.4032 22.8032C27.9306 22.6449 28.3864 22.8032 28.9942 23.3807C29.3874 23.7532 29.5394 23.837 29.8075 23.837C30.1203 23.837 30.2365 23.7346 31.4163 22.5052C32.9268 20.9313 32.9447 20.8847 32.2833 20.1024C31.6219 19.3201 31.4699 18.7426 31.7649 18.0907C32.033 17.5226 32.4263 17.2991 33.2843 17.2245C34.4641 17.1221 34.4373 17.1873 34.4373 14.859C34.4373 12.9777 34.4373 12.9497 34.2228 12.7169C34.0351 12.512 33.9278 12.4747 33.463 12.4654C32.6229 12.4561 32.1492 12.214 31.8096 11.6365C31.452 11.0125 31.5951 10.342 32.2564 9.62485C32.4888 9.3827 32.6318 9.13124 32.6676 8.8984C32.7212 8.56312 32.7033 8.5445 31.4342 7.20337C30.7281 6.4583 30.0578 5.83431 29.9416 5.79705C29.6824 5.73186 29.307 5.8995 29.1372 6.16028C28.8869 6.5235 28.2166 6.88672 27.7965 6.88672C26.8849 6.88672 26.3575 6.26272 26.2771 5.08924C26.2503 4.58632 26.1877 4.3628 26.0536 4.20447C25.8749 4.00889 25.8213 3.99958 24.0069 3.99958C22.3177 3.99958 22.13 4.0182 21.987 4.16722ZM25.0884 10.5655C26.6078 10.9846 27.6803 12.1208 28.0825 13.732C28.5741 15.6972 27.6446 17.8951 25.9643 18.7613C23.8818 19.8137 21.3166 18.9941 20.3245 16.9545C19.0464 14.3374 20.2799 11.3199 22.9254 10.5655C23.5064 10.3979 24.4985 10.3979 25.0884 10.5655Z" fill="#546E7A"/>
<path d="M6.31779 27.8317L6.05859 28.1018V31.7433V35.3755L6.35354 35.2637C6.55017 35.1985 8.1679 35.152 11.4034 35.124L16.1583 35.0961V31.5756C16.1583 28.2415 16.1493 28.0366 15.9884 27.8317L15.8186 27.6081L11.1978 27.5802L6.58592 27.5523L6.31779 27.8317Z" fill="#546E7A"/>
<path d="M19.2248 27.7857L18.9745 28.0092L18.9477 31.5576L18.9209 35.106H24.0244H29.1278L29.101 31.5576L29.0742 28.0092L28.8239 27.7857L28.5737 27.5621H24.0244H19.475L19.2248 27.7857Z" fill="#546E7A"/>
<path d="M32.1131 27.7944L31.8896 28.0179V31.557V35.0961L36.6535 35.124C39.88 35.152 41.4977 35.1985 41.7033 35.2637L41.9893 35.3755V31.7433V28.1018L41.7301 27.8317L41.4709 27.5616H36.8948H32.3276L32.1131 27.7944Z" fill="#546E7A"/>
<path d="M6.87255 36.6057C5.58552 36.8292 4.6113 37.6953 4.17335 38.9992C3.89628 39.8002 3.95884 41.1785 4.30742 41.9702C4.62024 42.678 5.30845 43.3951 6.0324 43.749L6.55079 44.0005H23.9794H41.4081L42.0069 43.7025C42.7666 43.3299 43.3565 42.7152 43.714 41.9236C43.9821 41.3369 44 41.2344 44 40.2751C44 39.3624 43.9732 39.1948 43.7587 38.7198C43.276 37.6488 42.2482 36.8199 41.1489 36.6057C40.4875 36.4753 7.60545 36.4846 6.87255 36.6057ZM10.6264 39.8467C10.7694 39.9957 10.8856 40.21 10.8856 40.3217C10.8856 40.5918 10.4923 40.9736 10.2153 40.9736C9.9382 40.9736 9.54494 40.5918 9.54494 40.3217C9.54494 40.0889 10.0008 39.5766 10.2153 39.5766C10.2957 39.5766 10.4834 39.6977 10.6264 39.8467ZM16.1678 39.8467C16.4806 40.182 16.4985 40.4428 16.2036 40.7408C15.9086 41.0575 15.5154 41.0482 15.274 40.7315C14.9791 40.3403 15.0595 39.9492 15.4886 39.6884C15.7656 39.5208 15.8818 39.558 16.1678 39.8467ZM21.7271 39.8747C22.0667 40.2845 21.7897 40.9736 21.2802 40.9736C20.7886 40.9736 20.449 40.3124 20.744 39.9306C21.03 39.5487 21.4322 39.5301 21.7271 39.8747ZM27.2685 39.8747C27.4741 40.1261 27.4651 40.5545 27.2417 40.7874C26.8663 41.1785 26.1692 40.8991 26.1692 40.359C26.1692 39.6698 26.8484 39.3717 27.2685 39.8747ZM32.5418 39.6884C32.9887 39.9306 33.0781 40.331 32.7742 40.7315C32.4703 41.1413 31.8983 41.0202 31.7285 40.5173C31.6212 40.1913 31.7553 39.8654 32.0681 39.6977C32.3452 39.558 32.3094 39.558 32.5418 39.6884ZM38.2441 39.8467C38.548 40.1727 38.5658 40.3962 38.3156 40.7315C38.0743 41.0482 37.681 41.0575 37.3861 40.7408C37.0911 40.4428 37.109 40.182 37.4218 39.8467C37.7525 39.5021 37.9134 39.5021 38.2441 39.8467Z" fill="#546E7A"/>
</svg>
