<svg width="48" height="48" viewBox="0 0 48 48" fill="none" xmlns="http://www.w3.org/2000/svg">
<path d="M31.0861 3.15702C30.4556 3.53435 30.2399 4.25619 30.5718 4.88781C30.8621 5.4538 31.1442 5.59325 32.1066 5.65887C34.0647 5.79832 35.6244 6.38892 37.0432 7.5045C38.13 8.34939 38.8518 9.27631 39.4824 10.5806C39.9304 11.5239 40.171 12.4508 40.254 13.5746C40.3203 14.5753 40.4531 14.8952 40.9343 15.2069C41.1666 15.371 41.2994 15.3956 41.7142 15.371C42.2867 15.3382 42.5687 15.1741 42.8259 14.723C43.0417 14.3456 43.0583 13.6074 42.8674 12.3688C42.1705 7.70958 38.4204 3.92808 33.7162 3.13241C32.6044 2.94375 31.418 2.96015 31.0861 3.15702Z" fill="#36A2EB"/>
<path d="M31.5093 7.75836C30.3893 7.99624 30.0325 9.37431 30.9037 10.0962C31.1692 10.3176 31.1941 10.3258 32.1731 10.4571C33.318 10.6211 34.2887 11.2035 34.8612 12.0894C35.2014 12.6226 35.359 13.0902 35.4503 13.8612C35.5747 14.903 35.9978 15.387 36.7943 15.387C37.707 15.387 38.1882 14.8538 38.1882 13.8612C38.1799 11.5316 36.6948 9.31689 34.4381 8.29974C33.5005 7.8732 32.1565 7.62711 31.5093 7.75836Z" fill="#36A2EB"/>
<path d="M18.1437 8.16191C17.6957 8.35878 16.5258 9.98293 15.8704 11.3282C14.4185 14.3222 14.0866 17.8494 14.9495 21.1141C15.0407 21.4505 15.1237 21.7293 15.1403 21.7458C15.1569 21.7622 15.4307 21.6473 15.7542 21.4915C17.8533 20.4907 20.3838 20.7122 22.292 22.0657C24.8059 23.8375 25.7186 27.2252 24.4243 29.9239C24.2832 30.211 24.2003 30.4653 24.2418 30.5063C24.2832 30.5474 24.7727 30.6704 25.3369 30.7934C26.2827 30.9903 26.515 31.0149 28.2739 31.0067C30.4062 31.0067 31.1031 30.9083 32.7956 30.3505C34.4052 29.8255 36.2968 28.7756 37.2758 27.865C37.6658 27.5041 37.6907 27.4549 37.6907 27.0776V26.6838L35.4589 24.4609C34.2392 23.2387 32.3725 21.3684 31.3105 20.3103L29.394 18.3908L30.5057 17.2752C31.1197 16.6682 31.659 16.0612 31.7088 15.9382C31.8415 15.6101 31.8166 15.0113 31.6756 14.7324C31.4018 14.2074 30.7215 13.9203 30.1241 14.0843C29.8337 14.1582 29.5516 14.3796 28.5809 15.3312L27.4028 16.496L23.1881 12.3289C19.2306 8.4244 18.9485 8.15371 18.6415 8.1209C18.4673 8.10449 18.2433 8.1209 18.1437 8.16191Z" fill="#36A2EB"/>
<path d="M17.9532 23.4365C16.4598 23.6169 15.1406 24.7817 14.7506 26.2582C14.0952 28.7601 15.9702 31.1389 18.592 31.1389C19.9858 31.1389 21.3382 30.3268 21.9936 29.1128C22.3338 28.4648 22.4417 28.0301 22.4334 27.2508C22.4251 24.831 20.4339 23.133 17.9532 23.4365Z" fill="#36A2EB"/>
<path d="M13.6875 31.7279C13.6709 31.7853 12.9739 33.4833 12.1443 35.5012C11.3229 37.5191 10.6426 39.1924 10.6426 39.217C10.6426 39.2417 14.1936 39.2581 18.5244 39.2581C22.8636 39.2581 26.4063 39.2417 26.4063 39.2252C26.4063 39.1678 23.4112 31.6787 23.378 31.6459C23.3614 31.6294 23.0793 31.8345 22.7474 32.1134C22.0256 32.7122 21.113 33.1962 20.2169 33.4505C19.3707 33.6884 17.7777 33.7048 16.9563 33.4833C15.8944 33.1962 14.7162 32.54 14.094 31.8837C13.8202 31.6048 13.7538 31.5802 13.6875 31.7279Z" fill="#36A2EB"/>
<path d="M6.16301 41.8994C5.24208 42.1537 4.75258 43.1872 5.12593 44.0731C5.29186 44.4669 5.46609 44.6555 5.84774 44.8442C6.14642 44.9918 6.55296 45 18.5251 45C31.9823 45 31.1858 45.0246 31.6504 44.5407C31.9408 44.229 32.0569 43.9009 32.0569 43.3841C32.0569 42.9083 31.9242 42.5966 31.5757 42.2849C31.0613 41.8091 31.9325 41.842 18.691 41.8255C10.7179 41.8173 6.35383 41.842 6.16301 41.8994Z" fill="#36A2EB"/>
</svg>
