<svg width="49" height="48" viewBox="0 0 49 48" fill="none" xmlns="http://www.w3.org/2000/svg">
<path d="M23.1398 3.07698C21.7717 3.39708 20.5197 4.5872 20.0553 6.00714L19.8812 6.54064L19.2262 6.72942C16.4485 7.52557 13.8366 8.99475 11.8549 10.8743L11.1667 11.5309L10.5117 11.3996C8.45538 10.9728 6.40736 12.048 5.58649 13.9851C5.37091 14.4857 5.31287 14.7484 5.2797 15.3804C5.22166 16.6361 5.58649 17.6867 6.38248 18.565L6.78048 19L6.5649 19.9603C6.20007 21.61 6.14203 22.1682 6.13373 23.9164C6.13373 25.7057 6.21665 26.4608 6.5649 28.0367L6.78048 28.997L6.38248 29.432C5.45382 30.4498 5.03924 32.0174 5.35432 33.3553C5.74403 35.0543 7.26968 36.4086 9.06067 36.6548C9.63279 36.7287 9.84837 36.7287 10.4537 36.6055L11.1667 36.466L11.8881 37.1473C13.8449 39.0104 16.4568 40.4796 19.2262 41.2675L19.8812 41.4563L20.0553 41.9898C20.528 43.4262 21.78 44.5999 23.173 44.92C23.6539 45.0267 24.8479 45.0267 25.3288 44.92C26.7301 44.5999 27.9738 43.4344 28.4464 41.9898L28.6206 41.4563L29.2756 41.2675C32.0533 40.4714 34.6651 39.0022 36.6468 37.1226L37.335 36.466L38.0481 36.6055C39.0431 36.8025 39.864 36.6876 40.8092 36.228C43.4128 34.9558 44.0678 31.5742 42.1193 29.432L41.7213 28.997L41.9369 28.0367C42.2934 26.4116 42.3597 25.8288 42.3597 24.0806C42.368 22.2913 42.2934 21.5444 41.9369 19.9603L41.7213 19L42.1193 18.565C44.0678 16.4227 43.4128 13.0412 40.8092 11.769C39.864 11.3093 39.0431 11.1944 38.0481 11.3914L37.335 11.5309L36.6137 10.8497C34.6403 8.97013 32.0616 7.52557 29.2756 6.72942L28.6206 6.54064L28.4464 6.00714C27.9738 4.56258 26.7301 3.39708 25.3288 3.07698C24.881 2.97028 23.5875 2.97849 23.1398 3.07698ZM21.2908 10.505C21.7883 10.9646 22.5594 11.375 23.173 11.5145C23.6539 11.6212 24.8479 11.6212 25.3288 11.5145C26.3569 11.2847 27.4431 10.4886 27.9904 9.56929L28.2806 9.07683L29.2175 9.38873C31.2656 10.0782 33.4297 11.3586 34.8724 12.7293L35.2538 13.0986L34.9719 13.6403C33.496 16.5294 35.5523 19.9685 38.7695 19.9767H39.3167L39.4494 20.6087C39.7313 21.9383 39.7893 22.5211 39.7893 23.9985C39.7893 25.4759 39.7313 26.0668 39.4494 27.3801L39.3167 28.0203H38.7695C37.3682 28.0203 36.025 28.7425 35.2455 29.8916C34.3252 31.2705 34.2257 32.8957 34.9719 34.3566L35.2538 34.8983L34.9139 35.2266C33.3882 36.663 31.2904 37.9106 29.2175 38.6082L28.2806 38.9201L27.9904 38.4277C27.4431 37.5084 26.3569 36.7122 25.3288 36.4824C24.8479 36.3757 23.6539 36.3757 23.173 36.4824C22.1448 36.7122 21.0586 37.5084 20.5197 38.4195L20.2212 38.9119L19.2759 38.6C17.2279 37.9188 15.0804 36.6466 13.6293 35.2677L13.2479 34.8983L13.5298 34.3566C14.1849 33.0762 14.1932 31.6973 13.5464 30.4087C12.8085 28.9313 11.3492 28.0203 9.724 28.0203H9.18504L9.05238 27.3801C8.77046 26.0586 8.71242 25.4759 8.71242 23.9985C8.71242 22.5211 8.77046 21.9301 9.05238 20.6087L9.18504 19.9767H9.724C11.3492 19.9767 12.8085 19.0656 13.5464 17.5882C14.1932 16.2914 14.1849 14.9207 13.5215 13.6321L13.2396 13.0822L13.8615 12.5241C15.4286 11.1288 17.2694 10.07 19.3091 9.38052L20.2212 9.07683L20.5114 9.56929C20.6772 9.84015 21.0254 10.2587 21.2908 10.505Z" fill="#FF7E29"/>
<path d="M20.4535 16.062C18.3972 17.2439 16.714 18.2452 16.7306 18.278C16.7555 18.3519 24.1516 22.6035 24.2594 22.6035C24.3589 22.6035 31.7467 18.3601 31.7716 18.278C31.7964 18.2206 24.3257 13.8951 24.2345 13.9115C24.2179 13.9115 22.5181 14.88 20.4535 16.062Z" fill="#FF7E29"/>
<path d="M15.4787 24.7456L15.5036 29.0957L19.2265 31.2297C21.2745 32.3952 22.966 33.3555 22.9826 33.3555C22.9992 33.3555 22.9992 31.3938 22.9909 28.989L22.966 24.6224L19.2762 22.5131C17.2448 21.3476 15.5616 20.3955 15.5201 20.3955C15.487 20.3873 15.4704 22.3489 15.4787 24.7456Z" fill="#FF7E29"/>
<path d="M29.2257 22.5131L25.5359 24.6224L25.5111 28.989C25.5028 31.3938 25.5111 33.3555 25.5276 33.3555C25.5442 33.3555 27.2274 32.3952 29.2755 31.2297L32.9984 29.0957L33.0233 24.7456C33.0315 22.3489 33.015 20.3873 32.9818 20.3955C32.9403 20.3955 31.2571 21.3476 29.2257 22.5131Z" fill="#FF7E29"/>
</svg>
