<svg width="24" height="25" viewBox="0 0 24 25" fill="none" xmlns="http://www.w3.org/2000/svg">
<path d="M1.99997 7.07568L10.1649 12.7911C10.8261 13.254 11.1567 13.4854 11.5163 13.575C11.8339 13.6542 12.1661 13.6542 12.4837 13.575C12.8433 13.4854 13.1739 13.254 13.8351 12.7911L22 7.07568M6.79997 20.0757H17.2C18.8802 20.0757 19.7202 20.0757 20.362 19.7487C20.9265 19.4611 21.3854 19.0022 21.673 18.4377C22 17.7959 22 16.9559 22 15.2757V8.87568C22 7.19552 22 6.35544 21.673 5.71371C21.3854 5.14922 20.9265 4.69028 20.362 4.40266C19.7202 4.07568 18.8802 4.07568 17.2 4.07568H6.79997C5.11981 4.07568 4.27973 4.07568 3.638 4.40266C3.07351 4.69028 2.61457 5.14922 2.32695 5.71371C1.99997 6.35544 1.99997 7.19552 1.99997 8.87568V15.2757C1.99997 16.9559 1.99997 17.7959 2.32695 18.4377C2.61457 19.0022 3.07351 19.4611 3.638 19.7487C4.27973 20.0757 5.11981 20.0757 6.79997 20.0757Z" stroke="white" stroke-width="1.33333" stroke-linecap="round" stroke-linejoin="round"/>
</svg>
