<svg width="24" height="25" viewBox="0 0 24 25" fill="none" xmlns="http://www.w3.org/2000/svg">
<path d="M15 2.07568V3.47568C15 4.03573 15 4.31576 14.891 4.52967C14.7951 4.71783 14.6422 4.87081 14.454 4.96669C14.2401 5.07568 13.9601 5.07568 13.4 5.07568H10.6C10.0399 5.07568 9.75992 5.07568 9.54601 4.96669C9.35785 4.87081 9.20487 4.71783 9.10899 4.52967C9 4.31576 9 4.03573 9 3.47568V2.07568M8.2 22.0757H15.8C16.9201 22.0757 17.4802 22.0757 17.908 21.8577C18.2843 21.666 18.5903 21.36 18.782 20.9837C19 20.5559 19 19.9958 19 18.8757V5.27568C19 4.15557 19 3.59552 18.782 3.1677C18.5903 2.79137 18.2843 2.48541 17.908 2.29367C17.4802 2.07568 16.9201 2.07568 15.8 2.07568H8.2C7.0799 2.07568 6.51984 2.07568 6.09202 2.29367C5.71569 2.48541 5.40973 2.79137 5.21799 3.1677C5 3.59552 5 4.15558 5 5.27568V18.8757C5 19.9958 5 20.5559 5.21799 20.9837C5.40973 21.36 5.71569 21.666 6.09202 21.8577C6.51984 22.0757 7.07989 22.0757 8.2 22.0757Z" stroke="white" stroke-width="1.33333" stroke-linecap="round" stroke-linejoin="round"/>
</svg>
